<svg xmlns="http://www.w3.org/2000/svg" xmlns:xlink="http://www.w3.org/1999/xlink" viewBox="0 0 795 705.91"><defs><style>.cls-1,.cls-5,.cls-9{fill:none;}.cls-1{stroke:#0041fa;}.cls-1,.cls-2,.cls-5,.cls-9{stroke-miterlimit:10;}.cls-1,.cls-2,.cls-5{stroke-width:2px;}.cls-2,.cls-4{fill:#fff;}.cls-2,.cls-5,.cls-9{stroke:#fff;}.cls-3{fill:#0041fa;}.cls-6{clip-path:url(#clip-path);}.cls-7{fill:#fa0064;}.cls-8{clip-path:url(#clip-path-2);}</style><clipPath id="clip-path"><ellipse class="cls-1" cx="180.9" cy="521.68" rx="168.02" ry="46.94"/></clipPath><clipPath id="clip-path-2"><path class="cls-2" d="M159.64,309.56c16.67-14,40.67-25.33,52-25.33,10,10.66,52,20.66,60.67,25.33s10.3,43.33,10.3,43.33-32.3,20-47,24-62.66-5.33-72-12C163.86,344.29,159.64,309.56,159.64,309.56Z"/></clipPath></defs><title>japan-mapo-foreground</title><g id="Layer_2" data-name="Layer 2"><g id="mapo-tofu-JAPAN"><g id="japan-mapo-foreground"><ellipse class="cls-3" cx="180.9" cy="660.15" rx="110.81" ry="45.76"/><ellipse class="cls-4" cx="180.9" cy="521.68" rx="180.9" ry="54.33"/><ellipse class="cls-4" cx="180.9" cy="526.94" rx="179.26" ry="54.25"/><ellipse class="cls-4" cx="180.9" cy="532.2" rx="177.63" ry="54.17"/><ellipse class="cls-4" cx="180.9" cy="537.46" rx="175.99" ry="54.09"/><ellipse class="cls-4" cx="180.9" cy="542.72" rx="174.36" ry="54.01"/><ellipse class="cls-4" cx="180.9" cy="547.98" rx="172.72" ry="53.93"/><ellipse class="cls-4" cx="180.9" cy="553.25" rx="171.09" ry="53.85"/><ellipse class="cls-4" cx="180.9" cy="558.51" rx="169.45" ry="53.77"/><ellipse class="cls-4" cx="180.9" cy="563.77" rx="167.82" ry="53.69"/><ellipse class="cls-4" cx="180.9" cy="569.03" rx="166.19" ry="53.61"/><ellipse class="cls-4" cx="180.9" cy="574.29" rx="164.55" ry="53.53"/><ellipse class="cls-4" cx="180.9" cy="579.55" rx="162.92" ry="53.45"/><ellipse class="cls-4" cx="180.9" cy="584.82" rx="161.28" ry="53.38"/><ellipse class="cls-4" cx="180.9" cy="590.08" rx="159.65" ry="53.3"/><ellipse class="cls-4" cx="180.9" cy="595.34" rx="158.01" ry="53.22"/><ellipse class="cls-4" cx="180.9" cy="600.6" rx="156.38" ry="53.14"/><ellipse class="cls-4" cx="180.9" cy="605.86" rx="154.74" ry="53.06"/><ellipse class="cls-4" cx="180.9" cy="611.12" rx="153.11" ry="52.98"/><ellipse class="cls-4" cx="180.9" cy="616.38" rx="151.47" ry="52.9"/><ellipse class="cls-4" cx="180.9" cy="621.65" rx="149.84" ry="52.82"/><ellipse class="cls-4" cx="180.9" cy="626.91" rx="148.2" ry="52.74"/><ellipse class="cls-4" cx="180.9" cy="632.17" rx="146.57" ry="52.66"/><ellipse class="cls-3" cx="180.9" cy="521.68" rx="168.02" ry="46.94"/><path class="cls-5" d="M62.09,537.52c30.4-8.49,72.41-13.75,118.81-13.75,44.45,0,84.87,4.83,114.92,12.7"/><g class="cls-6"><path class="cls-4" d="M44.48,547.84c0-26.19,96.8-53,175.5-53s109.5,26.85,109.5,53-63.8,47.42-142.5,47.42S44.48,574,44.48,547.84Z"/><ellipse class="cls-4" cx="63.82" cy="526.82" rx="7" ry="3.83"/><ellipse class="cls-4" cx="73.11" cy="525.88" rx="3.83" ry="7" transform="translate(-350.44 205.72) rotate(-45)"/><ellipse class="cls-4" cx="130.61" cy="505.63" rx="3.83" ry="7" transform="translate(-383.21 412.27) rotate(-65.22)"/><ellipse class="cls-4" cx="112.48" cy="511.88" rx="3.83" ry="7" transform="translate(-399.41 399.44) rotate(-65.22)"/><ellipse class="cls-4" cx="60.32" cy="532.67" rx="3.83" ry="7" transform="translate(-358.99 198.67) rotate(-45)"/><ellipse class="cls-4" cx="179.95" cy="497.57" rx="7" ry="3.83"/><ellipse class="cls-4" cx="189.24" cy="496.63" rx="3.83" ry="7" transform="translate(-295.74 279.28) rotate(-45)"/><ellipse class="cls-4" cx="171.83" cy="497.67" rx="3.83" ry="7" transform="translate(-301.58 267.27) rotate(-45)"/><ellipse class="cls-4" cx="137.44" cy="503.55" rx="3.83" ry="7" transform="translate(-315.81 244.67) rotate(-45)"/><ellipse class="cls-4" cx="124.65" cy="510.34" rx="3.83" ry="7" transform="translate(-324.36 237.62) rotate(-45)"/><ellipse class="cls-4" cx="152.07" cy="505" rx="3.83" ry="7" transform="translate(-130.15 59.47) rotate(-15.59)"/><ellipse class="cls-4" cx="162.2" cy="504.5" rx="3.83" ry="7" transform="translate(-129.64 62.17) rotate(-15.59)"/><ellipse class="cls-4" cx="99.97" cy="513.76" rx="3.83" ry="7" transform="translate(-134.42 45.78) rotate(-15.59)"/><ellipse class="cls-4" cx="48.78" cy="539.13" rx="7" ry="3.83" transform="translate(-488.72 474.87) rotate(-78.01)"/><ellipse class="cls-4" cx="79.11" cy="522.46" rx="7" ry="3.83" transform="translate(-448.39 491.34) rotate(-78.01)"/><ellipse class="cls-4" cx="203.7" cy="491.48" rx="3.83" ry="7" transform="translate(-309.94 352.85) rotate(-52.38)"/><ellipse class="cls-4" cx="211.63" cy="496.41" rx="3.83" ry="7" transform="translate(-62.04 31.32) rotate(-7.38)"/><ellipse class="cls-4" cx="197.35" cy="493.98" rx="3.83" ry="7" transform="translate(-61.85 29.46) rotate(-7.38)"/><ellipse class="cls-4" cx="325.69" cy="533.86" rx="3.83" ry="7" transform="matrix(0.99, -0.13, 0.13, 0.99, -65.91, 46.29)"/><ellipse class="cls-4" cx="218.47" cy="497.36" rx="7" ry="3.83" transform="translate(-270.24 260.18) rotate(-40.4)"/><ellipse class="cls-4" cx="297.59" cy="512.36" rx="7" ry="3.83" transform="translate(-261.1 315.03) rotate(-40.4)"/><ellipse class="cls-4" cx="85.77" cy="520.05" rx="3.83" ry="7" transform="translate(-342.61 212.97) rotate(-45)"/><ellipse class="cls-4" cx="266.76" cy="499.6" rx="3.83" ry="7" transform="translate(-299.42 485.28) rotate(-60.45)"/><ellipse class="cls-4" cx="282.22" cy="503.36" rx="7" ry="3.83" transform="translate(-281.7 380.84) rotate(-48.46)"/><ellipse class="cls-4" cx="289.2" cy="504.54" rx="3.83" ry="7" transform="matrix(0.96, -0.27, 0.27, 0.96, -123.97, 95.28)"/><ellipse class="cls-4" cx="91.78" cy="516.63" rx="7" ry="3.83" transform="matrix(0.21, -0.98, 0.98, 0.21, -432.65, 499.11)"/><ellipse class="cls-4" cx="295.92" cy="507.2" rx="7" ry="3.83" transform="translate(-276.5 638.19) rotate(-72.63)"/><ellipse class="cls-4" cx="319.12" cy="525.38" rx="7" ry="3.83" transform="translate(-273.22 361.07) rotate(-43.22)"/><ellipse class="cls-4" cx="327.47" cy="543.65" rx="7" ry="3.83" transform="translate(-283.46 371.75) rotate(-43.22)"/><ellipse class="cls-4" cx="306.96" cy="515.72" rx="7" ry="3.83" transform="translate(-276.88 654.7) rotate(-72.63)"/><ellipse class="cls-4" cx="312.78" cy="519.45" rx="7" ry="3.83" transform="translate(-128.47 103.57) rotate(-15.64)"/><ellipse class="cls-4" cx="272.08" cy="500.42" rx="7" ry="3.83" transform="matrix(0.21, -0.98, 0.98, 0.21, -273.93, 662.64)"/><ellipse class="cls-4" cx="45.48" cy="543.67" rx="3.83" ry="7" transform="translate(-448.09 311.23) rotate(-60)"/><ellipse class="cls-4" cx="258.78" cy="498.35" rx="3.83" ry="7" transform="translate(-273.61 319.82) rotate(-44.02)"/><ellipse class="cls-4" cx="250.78" cy="497.83" rx="3.83" ry="7" transform="translate(-305.74 466.1) rotate(-60)"/><ellipse class="cls-4" cx="239.48" cy="496.09" rx="7" ry="3.83" transform="translate(-226.67 202.56) rotate(-32.03)"/><ellipse class="cls-4" cx="233.92" cy="496.88" rx="3.83" ry="7" transform="translate(-113.4 71.47) rotate(-14.02)"/></g><ellipse class="cls-1" cx="180.9" cy="521.68" rx="168.02" ry="46.94"/><circle class="cls-7" cx="154.3" cy="438.11" r="10.17"/><circle class="cls-7" cx="147.89" cy="517.25" r="6.38"/><circle class="cls-7" cx="157.1" cy="476.25" r="3.58"/><path class="cls-3" d="M730.31,12.14C753.7,1.22,777.43-3.57,785.94,3s12.85,24.22,4.79,37.31S595.3,143.05,570.43,157.45,444.27,224.21,426,274.61,422.67,327,412.2,342.68,378.16,382,316,397,176.56,404.86,151,383.26s29.37-52.07,55-62.18c34.25-13.52,85.09-28.14,113.89-28.14s33.38,2.62,55.64-8.51S416.78,239.25,441,219,713.48,20,730.31,12.14Z"/><path class="cls-7" d="M154.31,369.56c-1-13.56,86-57.33,121.33-62.67s38.67,12.67,50,16,44,8.15,44,8.15,6.17,9.61-3.16,18.1-23.17,24.72-48.5,28.72-96.34,10.37-112.34,6.37S155,378.23,154.31,369.56Z"/><circle class="cls-3" cx="282.85" cy="339.5" r="7.13"/><circle class="cls-3" cx="291.81" cy="345.27" r="5.38"/><circle class="cls-3" cx="286.44" cy="349.27" r="5.38"/><circle class="cls-3" cx="299.54" cy="343.06" r="5.38"/><circle class="cls-3" cx="299.54" cy="350.65" r="3.89"/><circle class="cls-3" cx="280.27" cy="324.26" r="6.78"/><circle class="cls-3" cx="279.94" cy="331.07" r="4.2"/><path class="cls-4" d="M159.64,309.56c16.67-14,40.67-25.33,52-25.33,10,10.66,52,20.66,60.67,25.33s10.3,43.33,10.3,43.33-32.3,20-47,24-62.66-5.33-72-12C163.86,344.29,159.64,309.56,159.64,309.56Z"/><g class="cls-8"><path class="cls-7" d="M280.64,307.89S237.31,330.52,229.31,331c1.33,12.19-1,25.52,0,31.85s5.33,19.67,5.33,19.67l57.67-22.33Z"/></g><path class="cls-5" d="M159.64,309.56c16.67-14,40.67-25.33,52-25.33,10,10.66,52,20.66,60.67,25.33s10.3,43.33,10.3,43.33-32.3,20-47,24-62.66-5.33-72-12C163.86,344.29,159.64,309.56,159.64,309.56Z"/><circle class="cls-3" cx="254.58" cy="369.71" r="3.35"/><circle class="cls-3" cx="313.86" cy="343.58" r="3.47"/><circle class="cls-3" cx="297.19" cy="369.93" r="3.47"/><circle class="cls-3" cx="343.45" cy="352.71" r="5.4"/><circle class="cls-3" cx="338.04" cy="356.26" r="3.54"/><circle class="cls-3" cx="331.27" cy="358.58" r="5.86"/><circle class="cls-3" cx="322.17" cy="360.4" r="4.14"/><circle class="cls-3" cx="316.11" cy="362.8" r="7.13"/><circle class="cls-3" cx="298.66" cy="343.58" r="4.56"/><circle class="cls-3" cx="305.51" cy="350.4" r="3.47"/><circle class="cls-3" cx="300.9" cy="347.61" r="2.24"/><circle class="cls-3" cx="297.43" cy="337.82" r="6.78"/><circle class="cls-3" cx="287.65" cy="319.47" r="4.79"/><circle class="cls-3" cx="308.97" cy="347.61" r="2.05"/><circle class="cls-3" cx="266.45" cy="363.42" r="7.85"/><circle class="cls-3" cx="275.73" cy="360.21" r="5.68"/><circle class="cls-3" cx="282.85" cy="353.23" r="2.58"/><path class="cls-9" d="M354.22,349.66c3.32-4,6.27-8.8-1.25-11.3a22.36,22.36,0,0,0-16.37.66c-6.58,2.55-18.05-.71-22.74-3.75s-6-8.32-10.43-11c-4.77-2.86-6.24-2-6.24-2"/><path class="cls-9" d="M364,344.59c3.5-4.7,3.52-9-4-11.55-7.25-2.41-14.33-.89-18.39.19-6.24,1.67-17.72-1-23.56-3.66s-8.74-13.34-17.13-14.17l-8.38-.83"/><path class="cls-9" d="M255.35,379.23c4.17.17,11.13-4,18.15-4.33s12.42,2,20.22,2.17a27.27,27.27,0,0,0,13.21-3"/><path class="cls-7" d="M192.85,313.73a3.81,3.81,0,0,1,2.67-3.16,68.71,68.71,0,0,1,8.33.83,4.45,4.45,0,0,1-.67,3.17,15.9,15.9,0,0,1-1.83,1.83Z"/><polygon class="cls-7" points="257.92 309.32 261.42 309.32 263.42 311.82 259.87 311.82 257.92 309.32"/><path class="cls-7" d="M164.68,331.13a7.67,7.67,0,0,1,4.84.83c.83.5,3,3.84,3,3.84s-1.5,2.5-2.67,2.16a11.67,11.67,0,0,0-3.5,0l-1-3.44Z"/><path class="cls-7" d="M201.71,308.15s.95,1.88,0,2.88,3.41,2.33,3.41,2.33l3.34-.82Z"/><path class="cls-7" d="M207.35,348.14a47.79,47.79,0,0,1,5.17,3.59s.77,6.27,1.72,6.39-5.22-1.86-5.22-1.86l-.34-3.55Z"/><path class="cls-7" d="M172.35,346.45s.37-.17,1,.3,0,2.11,0,2.11l-.83-1.25Z"/></g></g></g></svg>