<svg xmlns="http://www.w3.org/2000/svg" xmlns:xlink="http://www.w3.org/1999/xlink" viewBox="0 0 1013.24 555.85"><defs><style>.cls-1{fill:#fff;}.cls-13,.cls-2,.cls-8{fill:none;}.cls-3{fill:#0041fa;}.cls-4{clip-path:url(#clip-path);}.cls-5{clip-path:url(#clip-path-2);}.cls-6{fill:#fa0064;}.cls-7{clip-path:url(#clip-path-3);}.cls-8{stroke:#fa0064;}.cls-13,.cls-8{stroke-miterlimit:10;}.cls-9{fill:#ffdc34;}.cls-10{clip-path:url(#clip-path-4);}.cls-11{clip-path:url(#clip-path-5);}.cls-12{clip-path:url(#clip-path-6);}.cls-13{stroke:#0041fa;}.cls-14{clip-path:url(#clip-path-7);}.cls-15{clip-path:url(#clip-path-8);}.cls-16{clip-path:url(#clip-path-9);}</style><clipPath id="clip-path"><path class="cls-1" d="M965,480.31l-18.8,6.83s13,21.55,16,27.13,8.22,31.74,13.13,32.34,13.1-4.28,16.16-5.87-1.52-6.58-2.28-7.26-6.21-18-8.9-25A129.14,129.14,0,0,0,965,480.31Z"/></clipPath><clipPath id="clip-path-2"><path class="cls-1" d="M947.23,487.32,930,474.94s-7.08,24.57-9.17,30.59S903.22,532.07,906,536.75s11.67,8.91,14.82,10.63,3.77-5.34,3.76-6.42,8.94-16.39,12.25-23A128.59,128.59,0,0,0,947.23,487.32Z"/></clipPath><clipPath id="clip-path-3"><path class="cls-2" d="M926.28,415h41.78a2.16,2.16,0,0,1,2.16,2.16v42.36a19.34,19.34,0,0,1-19.34,19.34h-7.42a19.34,19.34,0,0,1-19.34-19.34V417.2A2.16,2.16,0,0,1,926.28,415Z" transform="translate(1894.34 893.95) rotate(-180)"/></clipPath><clipPath id="clip-path-4"><path class="cls-2" d="M50.43,440.57h0a16.32,16.32,0,0,1,16.32,16.32v26a0,0,0,0,1,0,0H34.11a0,0,0,0,1,0,0v-26A16.32,16.32,0,0,1,50.43,440.57Z" transform="translate(-74.71 14.43) rotate(-9.4)"/></clipPath><clipPath id="clip-path-5"><path class="cls-1" d="M40.22,482.35l13.9,3.17s-6.44,16.21-7.83,20.37-1.86,22.94-5.2,23.78-9.62-1.88-12-2.73.26-4.74.71-5.28S32,508.55,33,503.42A86.69,86.69,0,0,1,40.22,482.35Z"/></clipPath><clipPath id="clip-path-6"><path class="cls-1" d="M60.05,488.56l7-13.26s10.38,13.92,13.13,17.23,17.05,12.06,16.61,16-4.57,9.32-6,11.4-3.56-2.36-3.83-3.07-9.4-8-13-11.35A87.24,87.24,0,0,1,60.05,488.56Z"/></clipPath><clipPath id="clip-path-7"><path class="cls-3" d="M403,471.77l19.3,5.23s-11.17,22.57-13.68,28.38S403,537.7,398.2,538.71s-13.41-3.17-16.59-4.5,1-6.68,1.66-7.42S388,508.37,390,501.17A129.51,129.51,0,0,1,403,471.77Z"/></clipPath><clipPath id="clip-path-8"><path class="cls-3" d="M421.28,477.26l16.13-13.77s9.12,23.89,11.71,29.71,19.76,25,17.39,29.86-10.88,9.86-13.87,11.84-4.21-5-4.29-6.08-10.29-15.58-14.14-21.9A129.13,129.13,0,0,1,421.28,477.26Z"/></clipPath><clipPath id="clip-path-9"><path class="cls-2" d="M441.45,478.94l-41.63,4.17a2.31,2.31,0,0,1-2.33-2.35l-3.55-50.22c-.89-12.61,7-24.15,17.63-25.22l7.41-.38c11.24-1.07,20,8.39,20.89,21l3.55,50.22A2.48,2.48,0,0,1,441.45,478.94Z"/></clipPath></defs><title>japan-masks-background</title><g id="Layer_2" data-name="Layer 2"><g id="masks_-JAPAN" data-name="masks -JAPAN"><g id="japan-masks-background"><g id="girl"><path class="cls-1" d="M965,480.31l-18.8,6.83s13,21.55,16,27.13,8.22,31.74,13.13,32.34,13.1-4.28,16.16-5.87-1.52-6.58-2.28-7.26-6.21-18-8.9-25A129.14,129.14,0,0,0,965,480.31Z"/><g class="cls-4"><polygon points="989.26 533.48 971.35 541.35 976.51 555.78 995.59 543.64 992.07 531.96 989.26 533.48"/></g><path class="cls-1" d="M947.23,487.32,930,474.94s-7.08,24.57-9.17,30.59S903.22,532.07,906,536.75s11.67,8.91,14.82,10.63,3.77-5.34,3.76-6.42,8.94-16.39,12.25-23A128.59,128.59,0,0,0,947.23,487.32Z"/><g class="cls-5"><polygon points="925.23 539.4 907.72 528.79 898.37 533.31 901.65 550.75 925.89 555.85 928.25 542.82 925.23 539.4"/></g><path class="cls-3" d="M926.73,478.9H969s4.71,10.48,6.28,13.17c-9,4.27-20.32,4.29-27,4.29s-22.4-4.29-26.44-6.31C924.73,484.21,926.73,478.9,926.73,478.9Z"/><path class="cls-6" d="M926.28,415h41.78a2.16,2.16,0,0,1,2.16,2.16v42.36a19.34,19.34,0,0,1-19.34,19.34h-7.42a19.34,19.34,0,0,1-19.34-19.34V417.2A2.16,2.16,0,0,1,926.28,415Z" transform="translate(1894.34 893.95) rotate(-180)"/><g class="cls-7"><path class="cls-3" d="M962.57,483.36H953s-7-46.29-11.74-61.11c-1.49-4.67-2.38-6.91-2.38-6.91l19.67-.27a77,77,0,0,1,1.79,8.25C962.54,438.41,962.57,483.36,962.57,483.36Z"/><ellipse class="cls-1" cx="948.49" cy="415.54" rx="9.36" ry="5.42"/></g><rect class="cls-1" x="943.29" y="469.66" width="13.29" height="11.36" rx="3.57" ry="3.57" transform="translate(815.55 -578.35) rotate(56.15)"/><path class="cls-6" d="M933.32,416.42h15.56a0,0,0,0,1,0,0v50a7.78,7.78,0,0,1-7.78,7.78h0a7.78,7.78,0,0,1-7.78-7.78v-50A0,0,0,0,1,933.32,416.42Z" transform="translate(1969.63 606.86) rotate(163.6)"/><path class="cls-3" d="M969.61,380.4S969.22,406,971.39,410c-4.9.67-13.91,1.64-19.12,1.49S969.61,380.4,969.61,380.4Z"/><rect class="cls-1" x="927.45" y="367.72" width="43.79" height="43.79" rx="21.12" ry="21.12" transform="translate(1898.69 779.23) rotate(-180)"/><rect class="cls-1" x="940.21" y="407.73" width="13.92" height="9.89" transform="translate(1894.34 825.34) rotate(-180)"/><path class="cls-6" d="M971.24,391.61s-8.47-1.46-11.16-1.46-17.58.84-17.58.84,1.47,5.92,1.45,8.7c0,1.67-1.72,7-1.72,7s11.5,2.54,14.11,2.54a36.37,36.37,0,0,0,6.22-.78s2.65-.79,6.2-6.57S971.24,391.61,971.24,391.61Z"/><path class="cls-8" d="M943.24,391.61c-1.91-1.69-6-4.55-8.31-3.26-5.91,3.31-3.71,6.89-2.75,8.87,2.36,4.83,10.78,9,10.78,9"/><path class="cls-3" d="M937.11,369.19c4.16-5.68,14.79-7.11,22.53-4S972,377.46,972,380.94c-4.27-1.12-17.51-3.14-19.76-2.69a33.08,33.08,0,0,0-4.37-5.39s-4.07,18.07-4.62,20.32c-3.24-1.8-6.13-3-6.13-3Z"/><path class="cls-3" d="M938.08,369.21c-2.58-1.13-7.12-.14-9.48,3.67s-4.54,8.11-4.54,14.29,3.48,23.46,3.48,23.46,3.43,1.66,9.57,1.3C934.16,397.11,941.2,379.42,938.08,369.21Z"/><ellipse class="cls-1" cx="934.79" cy="393.69" rx="4.5" ry="5.84" transform="translate(-79.52 392.29) rotate(-22.76)"/></g><circle class="cls-6" cx="751.86" cy="23.41" r="20.87"/><polygon class="cls-6" points="752.31 0 750.11 3.81 754.51 3.81 752.31 0"/><polygon class="cls-6" points="748.24 0.28 746.73 4.41 751.06 3.65 748.24 0.28"/><polygon class="cls-6" points="744.27 1.26 743.51 5.59 747.64 4.09 744.27 1.26"/><polygon class="cls-6" points="740.54 2.92 740.54 7.31 744.35 5.12 740.54 2.92"/><polygon class="cls-6" points="737.15 5.19 737.92 9.53 741.29 6.7 737.15 5.19"/><polygon class="cls-6" points="734.21 8.02 735.72 12.16 738.55 8.79 734.21 8.02"/><polygon class="cls-6" points="731.81 11.32 734.01 15.13 736.21 11.32 731.81 11.32"/><polygon class="cls-6" points="730.02 14.99 732.84 18.36 734.35 14.22 730.02 14.99"/><polygon class="cls-6" points="728.88 18.91 732.25 21.74 733.02 17.41 728.88 18.91"/><polygon class="cls-6" points="728.45 22.97 732.26 25.17 732.26 20.77 728.45 22.97"/><polygon class="cls-6" points="728.73 27.04 732.87 28.55 732.1 24.21 728.73 27.04"/><polygon class="cls-6" points="729.71 31 734.04 31.77 732.54 27.63 729.71 31"/><polygon class="cls-6" points="731.37 34.73 735.77 34.73 733.57 30.92 731.37 34.73"/><polygon class="cls-6" points="733.64 38.12 737.98 37.36 735.15 33.99 733.64 38.12"/><polygon class="cls-6" points="736.48 41.06 740.61 39.56 737.24 36.73 736.48 41.06"/><polygon class="cls-6" points="739.77 43.47 743.58 41.27 739.77 39.07 739.77 43.47"/><polygon class="cls-6" points="743.44 45.26 746.81 42.43 742.68 40.93 743.44 45.26"/><polygon class="cls-6" points="747.36 46.39 750.19 43.02 745.86 42.26 747.36 46.39"/><polygon class="cls-6" points="751.42 46.82 753.62 43.01 749.22 43.01 751.42 46.82"/><polygon class="cls-6" points="755.49 46.55 757 42.41 752.66 43.17 755.49 46.55"/><polygon class="cls-6" points="759.46 45.56 760.22 41.23 756.09 42.73 759.46 45.56"/><polygon class="cls-6" points="763.19 43.91 763.19 39.51 759.38 41.71 763.19 43.91"/><polygon class="cls-6" points="766.57 41.63 765.81 37.3 762.44 40.13 766.57 41.63"/><polygon class="cls-6" points="769.51 38.8 768.01 34.67 765.18 38.04 769.51 38.8"/><polygon class="cls-6" points="771.92 35.5 769.72 31.69 767.52 35.5 771.92 35.5"/><polygon class="cls-6" points="773.71 31.84 770.88 28.46 769.38 32.6 773.71 31.84"/><polygon class="cls-6" points="774.84 27.91 771.47 25.09 770.71 29.42 774.84 27.91"/><polygon class="cls-6" points="775.28 23.86 771.47 21.66 771.47 26.05 775.28 23.86"/><polygon class="cls-6" points="775 19.78 770.86 18.28 771.63 22.61 775 19.78"/><polygon class="cls-6" points="774.01 15.82 769.68 15.06 771.19 19.19 774.01 15.82"/><polygon class="cls-6" points="772.36 12.09 767.96 12.09 770.16 15.9 772.36 12.09"/><polygon class="cls-6" points="770.08 8.7 765.75 9.47 768.58 12.84 770.08 8.7"/><polygon class="cls-6" points="767.25 5.76 763.12 7.27 766.49 10.09 767.25 5.76"/><polygon class="cls-6" points="763.95 3.36 760.14 5.56 763.95 7.76 763.95 3.36"/><polygon class="cls-6" points="760.29 1.56 756.92 4.39 761.05 5.9 760.29 1.56"/><polygon class="cls-6" points="756.37 0.43 753.54 3.8 757.87 4.57 756.37 0.43"/><circle class="cls-6" cx="100.4" cy="182.37" r="15.04"/><polygon class="cls-6" points="100.4 161.44 95.92 169.2 104.88 169.2 100.4 161.44"/><polygon class="cls-6" points="93.24 162.7 91.69 171.53 100.11 168.46 93.24 162.7"/><polygon class="cls-6" points="86.95 166.34 88.5 175.16 95.37 169.4 86.95 166.34"/><polygon class="cls-6" points="82.28 171.91 86.75 179.66 91.23 171.91 82.28 171.91"/><polygon class="cls-6" points="79.79 178.74 86.65 184.5 88.21 175.67 79.79 178.74"/><polygon class="cls-6" points="79.79 186.01 88.21 189.07 86.65 180.25 79.79 186.01"/><polygon class="cls-6" points="82.28 192.84 91.23 192.84 86.75 185.08 82.28 192.84"/><polygon class="cls-6" points="86.95 198.41 95.37 195.34 88.5 189.58 86.95 198.41"/><polygon class="cls-6" points="93.24 202.04 100.11 196.28 91.69 193.22 93.24 202.04"/><polygon class="cls-6" points="100.4 203.3 104.88 195.54 95.92 195.54 100.4 203.3"/><polygon class="cls-6" points="107.56 202.04 109.11 193.22 100.7 196.28 107.56 202.04"/><polygon class="cls-6" points="113.86 198.41 112.3 189.58 105.44 195.34 113.86 198.41"/><polygon class="cls-6" points="118.53 192.84 114.05 185.08 109.57 192.84 118.53 192.84"/><polygon class="cls-6" points="121.01 186.01 114.15 180.25 112.59 189.07 121.01 186.01"/><polygon class="cls-6" points="121.01 178.74 112.59 175.67 114.15 184.5 121.01 178.74"/><polygon class="cls-6" points="118.53 171.91 109.57 171.91 114.05 179.66 118.53 171.91"/><polygon class="cls-6" points="113.86 166.34 105.44 169.4 112.3 175.16 113.86 166.34"/><polygon class="cls-6" points="107.56 162.7 100.7 168.46 109.11 171.53 107.56 162.7"/><ellipse class="cls-3" cx="994.94" cy="20.44" rx="5.43" ry="9.15"/><ellipse class="cls-3" cx="988.47" cy="23.12" rx="5.43" ry="9.15" transform="translate(273.17 705.73) rotate(-45)"/><ellipse class="cls-3" cx="985.79" cy="29.59" rx="9.15" ry="5.43"/><ellipse class="cls-3" cx="988.47" cy="36.06" rx="9.15" ry="5.43" transform="translate(264.02 709.52) rotate(-45)"/><ellipse class="cls-3" cx="994.94" cy="38.74" rx="5.43" ry="9.15"/><ellipse class="cls-3" cx="1001.41" cy="36.06" rx="5.43" ry="9.15" transform="translate(267.81 718.67) rotate(-45)"/><ellipse class="cls-3" cx="1004.09" cy="29.59" rx="9.15" ry="5.43"/><ellipse class="cls-3" cx="1001.41" cy="23.12" rx="9.15" ry="5.43" transform="translate(276.96 714.88) rotate(-45)"/><circle class="cls-9" cx="994.94" cy="29.59" r="6.23"/><path d="M58,449.06c6.69-.75,10.09-.13,12.69,4.84s5.5,21,5.5,21l-4,3.34H60.09Z"/><rect class="cls-1" x="16.47" y="418.8" width="9.5" height="45.43" rx="4.75" ry="4.75" transform="translate(404.7 661.39) rotate(122.58)"/><path class="cls-1" d="M25.09,435.77H37.6a0,0,0,0,1,0,0v18a5.51,5.51,0,0,1-5.51,5.51H30.6a5.51,5.51,0,0,1-5.51-5.51v-18A0,0,0,0,1,25.09,435.77Z" transform="translate(-341.57 198.13) rotate(-52.22)"/><rect class="cls-6" x="16.77" y="439.85" width="12.51" height="2.49" transform="translate(-339.7 189.05) rotate(-52.22)"/><polygon points="44.31 429.6 45.07 436.19 40.6 438.67 40.47 436.89 33.66 441.1 33.71 437.06 29.58 438.21 31.13 434.75 44.31 429.6"/><rect class="cls-1" x="39.41" y="433.92" width="11.35" height="13.43" transform="matrix(0.98, -0.21, 0.21, 0.98, -92.68, 19.67)"/><path class="cls-1" d="M50.43,440.57h0a16.32,16.32,0,0,1,16.32,16.32v26a0,0,0,0,1,0,0H34.11a0,0,0,0,1,0,0v-26A16.32,16.32,0,0,1,50.43,440.57Z" transform="translate(-74.71 14.43) rotate(-9.4)"/><g class="cls-10"><ellipse class="cls-8" cx="45.09" cy="443.14" rx="7.96" ry="6.94" transform="translate(-379.09 307.22) rotate(-66.42)"/></g><path class="cls-1" d="M40.22,482.35l13.9,3.17s-6.44,16.21-7.83,20.37-1.86,22.94-5.2,23.78-9.62-1.88-12-2.73.26-4.74.71-5.28S32,508.55,33,503.42A86.69,86.69,0,0,1,40.22,482.35Z"/><g class="cls-11"><polygon class="cls-3" points="29.85 521.66 43.26 525.64 41.42 536.19 26.68 529.31 27.71 520.83 29.85 521.66"/></g><path class="cls-1" d="M60.05,488.56l7-13.26s10.38,13.92,13.13,17.23,17.05,12.06,16.61,16-4.57,9.32-6,11.4-3.56-2.36-3.83-3.07-9.4-8-13-11.35A87.24,87.24,0,0,1,60.05,488.56Z"/><g class="cls-12"><polygon class="cls-3" points="86.15 515.99 93.71 503.8 100.34 503.94 102.84 516.32 89.94 526.94 85.25 519.13 86.15 515.99"/></g><polygon class="cls-3" points="37.65 484.41 69.67 478.23 80.69 492.44 64.78 505.85 56.43 493.82 50.49 506.84 32.38 501.97 37.65 484.41"/><rect class="cls-1" x="70.46" y="430.67" width="9.5" height="45.43" rx="4.75" ry="4.75" transform="translate(-382.5 411.93) rotate(-75.41)"/><path class="cls-1" d="M57.46,439H70a0,0,0,0,1,0,0v18a5.51,5.51,0,0,1-5.51,5.51H63A5.51,5.51,0,0,1,57.46,457V439A0,0,0,0,1,57.46,439Z" transform="translate(509.44 543.49) rotate(109.8)"/><rect class="cls-6" x="67.37" y="453.1" width="12.51" height="2.49" transform="translate(526.06 538.94) rotate(109.8)"/><path d="M39.13,444.5s-2.79-1.44-4.13-2c-1,3.38-1.2,7.88-1.38,11.44a50.87,50.87,0,0,0,.85,11.91s.73-9,1.25-11.91A34.71,34.71,0,0,1,39.13,444.5Z"/><path class="cls-3" d="M26.58,411.53s-4.74,5.16-6.48,6.5-11.77,8.21-11.77,8.21a42.14,42.14,0,0,0-3.4-6.34,35,35,0,0,0-4.59-3.66s6.16-7.37,7.84-8.67a29.27,29.27,0,0,1,4.41-2.6s2.11-.81,7.28,1.16S26.58,411.53,26.58,411.53Z"/><path class="cls-13" d="M8.5,425.47c-3.41,2.59-1.59,6.08-3.74,6.24a3.52,3.52,0,0,1-3.92-3c-.88-4.29.21-12.5.21-12.5"/><path class="cls-13" d="M13.46,405.47c1.34-2.5,2.68-2.33,4-6.17s5-2,6.5,0,0,10.24,0,10.24"/><rect class="cls-1" x="23.52" y="404.2" width="35.71" height="35.71" rx="17.85" ry="17.85" transform="translate(-382.5 408.98) rotate(-82.63)"/><polygon points="53.95 422.29 60.09 424.82 60.09 429.94 58.47 429.19 58.84 437.19 55.34 435.19 54.34 439.35 52.07 436.32 53.95 422.29"/><polygon points="27.47 410.81 21.8 417.52 30.8 413.14 29.86 417.52 37.97 414.16 46.41 417.52 48.3 425.83 52.86 418.32 27.47 410.81"/><path class="cls-6" d="M25.58,410.38c3.47-11.14,10.16-19,23.9-14.68s14.81,14.52,11.34,25.65"/><path class="cls-6" d="M26.07,408.88l35.22,11,2,6.32s-15.65-6.65-20.94-8.3S20.93,413,20.93,413Z"/><ellipse class="cls-1" cx="52.86" cy="425.83" rx="4.76" ry="3.67" transform="translate(-341.98 257.83) rotate(-59.87)"/><rect class="cls-6" x="53.07" y="454.21" width="8.02" height="2.83" transform="translate(-95.59 22.56) rotate(-12.28)"/><path d="M56.08,442l3,.57,3.35,1.13s.66,11.64,4.5,18.05c.5,2.75.67,4.08.67,4.08s-7-6-8.34-11.67S56.08,442,56.08,442Z"/><path class="cls-6" d="M31.2,429.6s6.5,1.21,8.56,1.79c-2,1.5-3.38,2.67-5.2,2.17S31.2,429.6,31.2,429.6Z"/><g id="mom"><path d="M390,372.6s3.34,35.12,1.65,40.86c5,.51,30.94,1.37,36.11.73,3.67-.45,4.76-24.65-2.54-36.58C422.26,372.75,390,372.6,390,372.6Z"/><rect class="cls-1" x="373.63" y="455.66" width="13.29" height="11.36" rx="3.57" ry="3.57" transform="translate(977.11 496.2) rotate(132.84)"/><path class="cls-1" d="M395.2,404.57h0a4.91,4.91,0,0,1,4.91,4.91v53.18a0,0,0,0,1,0,0h-9.83a0,0,0,0,1,0,0V409.49A4.91,4.91,0,0,1,395.2,404.57Z" transform="translate(224.07 -127.56) rotate(25.39)"/><path class="cls-6" d="M401.25,405.94h0a7.78,7.78,0,0,1,7.78,7.78V435.8a0,0,0,0,1,0,0H393.47a0,0,0,0,1,0,0V413.72A7.78,7.78,0,0,1,401.25,405.94Z" transform="translate(219.19 -131.39) rotate(25.39)"/><path class="cls-3" d="M403,471.77l19.3,5.23s-11.17,22.57-13.68,28.38S403,537.7,398.2,538.71s-13.41-3.17-16.59-4.5,1-6.68,1.66-7.42S388,508.37,390,501.17A129.51,129.51,0,0,1,403,471.77Z"/><g class="cls-14"><polygon points="383.27 526.79 401.78 533.13 397.84 547.94 377.81 537.44 380.34 525.51 383.27 526.79"/></g><path class="cls-3" d="M421.28,477.26l16.13-13.77s9.12,23.89,11.71,29.71,19.76,25,17.39,29.86-10.88,9.86-13.87,11.84-4.21-5-4.29-6.08-10.29-15.58-14.14-21.9A129.13,129.13,0,0,1,421.28,477.26Z"/><g class="cls-15"><polygon points="447.57 527.32 464.13 515.28 473.83 519 472.01 536.65 448.29 543.76 444.85 530.98 447.57 527.32"/></g><path class="cls-6" d="M414.77,405.1h7.42a19.34,19.34,0,0,1,19.34,19.34v54.72a2.16,2.16,0,0,1-2.16,2.16H397.59a2.16,2.16,0,0,1-2.16-2.16V424.44a19.34,19.34,0,0,1,19.34-19.34Z" transform="translate(-35.68 36.64) rotate(-4.81)"/><g class="cls-16"><path class="cls-3" d="M405.67,487.84l18.17-1s-5.54-55.51-2.07-73.55c1.09-5.69,1.79-8.43,1.79-8.43l-19.62,1.63s-.87,5.39-1.1,10C401.92,434.54,405.67,487.84,405.67,487.84Z"/><ellipse class="cls-1" cx="414.01" cy="406.04" rx="9.38" ry="6.43" transform="matrix(0.99, -0.13, 0.13, 0.99, -47.65, 55.12)"/></g><rect class="cls-1" x="409.32" y="459.9" width="13.29" height="11.36" rx="3.57" ry="3.57" transform="translate(1024.93 327.93) rotate(119.04)"/><path class="cls-1" d="M423.84,406h0a4.91,4.91,0,0,1,4.91,4.91v53.18a0,0,0,0,1,0,0h-9.83a0,0,0,0,1,0,0V410.91A4.91,4.91,0,0,1,423.84,406Z" transform="translate(96.03 -76.27) rotate(11.59)"/><path class="cls-6" d="M426.68,406.28h0a7.78,7.78,0,0,1,7.78,7.78v22.08a0,0,0,0,1,0,0H418.9a0,0,0,0,1,0,0V414.06A7.78,7.78,0,0,1,426.68,406.28Z" transform="translate(93.31 -77.13) rotate(11.59)"/><rect class="cls-3" x="413.99" y="457.32" width="10.17" height="2.36" transform="translate(100.64 -74.84) rotate(11.59)"/><rect class="cls-1" x="389.09" y="358.19" width="43.79" height="43.79" rx="21.12" ry="21.12" transform="translate(-30.42 35.79) rotate(-4.81)"/><rect class="cls-1" x="407.96" y="394.65" width="13.92" height="12.46" transform="translate(-32.15 36.2) rotate(-4.81)"/><path class="cls-6" d="M389.34,383.9s8.31-2.16,11-2.39,17.59-.63,17.59-.63-1,6-.72,8.79c.15,1.66,2.3,6.83,2.3,6.83s-11.24,3.5-13.84,3.71a36.7,36.7,0,0,1-6.27-.25s-2.71-.57-6.73-6S389.34,383.9,389.34,383.9Z"/><path class="cls-8" d="M417.23,381.56c1.76-1.84,5.6-5,8-3.95,6.17,2.81,4.28,6.55,3.48,8.61-1.94,5-10,9.85-10,9.85"/><path d="M421.47,358.71c-4.63-5.32-15.34-5.85-22.79-2.07s-11.28,13.23-11,16.7a54,54,0,0,0,23.37-10.08s9.45,14.92,10.19,17.11a9.88,9.88,0,0,0,2-.78Z"/><path d="M420.5,358.8c2.47-1.34,7.08-.73,9.75,2.87s5.21,7.7,5.73,13.85,4.8,41.22,4.8,41.22-9.36.09-15.5.25C427,402,418.25,369.24,420.5,358.8Z"/><ellipse class="cls-1" cx="425.83" cy="382.92" rx="5.84" ry="4.5" transform="translate(-69.69 670.01) rotate(-72.05)"/><path class="cls-3" d="M434.15,350.69a43.18,43.18,0,0,0,5.33-3.14,2.85,2.85,0,0,0,.56-.49,2.77,2.77,0,1,0-4.32-3.46,2.19,2.19,0,0,0-.24.43.61.61,0,0,0-.05.12C434.52,346.18,434.15,350.69,434.15,350.69Z"/><path class="cls-3" d="M437,357.16a36.5,36.5,0,0,0,5.38-.18,2.36,2.36,0,0,0,.63-.13,2.09,2.09,0,0,0,.3-.11,2.42,2.42,0,0,0-2.15-4.34l-.37.23-.08.07A24.31,24.31,0,0,0,437,357.16Z"/><path class="cls-3" d="M390.59,499.37s20.16-2.38,19.61,2.43-3.38,28.32-3.38,31.65c-3.67.67-24.2-4.82-23.55-6.66S390.59,499.37,390.59,499.37Z"/><path class="cls-3" d="M435,503.12s7.3-17.41,10.7-14,19.92,20.4,22.51,22.5c-1.78,3.27-18.95,15.81-20,14.15S435,503.12,435,503.12Z"/></g></g></g></g></svg>