<svg xmlns="http://www.w3.org/2000/svg" xmlns:xlink="http://www.w3.org/1999/xlink" viewBox="0 0 785.94 539.95"><defs><style>.cls-1{fill:#0041fa;}.cls-12,.cls-2,.cls-4{fill:none;}.cls-3{fill:#fff;}.cls-4{stroke:#0041fa;}.cls-12,.cls-4{stroke-miterlimit:10;}.cls-5{clip-path:url(#clip-path);}.cls-6{clip-path:url(#clip-path-2);}.cls-7{clip-path:url(#clip-path-3);}.cls-8{fill:#fa0064;}.cls-9{fill:#ffdc34;}.cls-10{clip-path:url(#clip-path-4);}.cls-11{clip-path:url(#clip-path-5);}.cls-12{stroke:#fa0064;}.cls-13{clip-path:url(#clip-path-6);}.cls-14{clip-path:url(#clip-path-7);}.cls-15{clip-path:url(#clip-path-8);}</style><clipPath id="clip-path"><path class="cls-1" d="M76.34,455,101.51,459S89.57,485.08,87,491.75s-3.73,36.37-9.81,37.92-17.44-2.31-21.63-3.5.53-7.51,1.35-8.39,4.08-20.87,6-29A132.6,132.6,0,0,1,76.34,455Z"/></clipPath><clipPath id="clip-path-2"><path class="cls-1" d="M94.07,461.59l22-12.93s7.44,27.68,9.7,34.47,20.34,30.38,16.65,35.45-14.9,9.35-18.89,11.12-4.38-6.13-4.31-7.33S109,503.71,105.29,496.18A132.48,132.48,0,0,1,94.07,461.59Z"/></clipPath><clipPath id="clip-path-3"><path class="cls-2" d="M91.67,416.49c5.65-13.5,12.29-33.37,15-34.32-1.66-.27-13.82-.13-18.73-.09a1.88,1.88,0,0,0-1.86,2.08,60.19,60.19,0,0,0,.59,11.77C87.65,403.49,91.67,416.49,91.67,416.49Z"/></clipPath><clipPath id="clip-path-4"><path class="cls-3" d="M625.52,437.62l-18.85.78s5.57,23.1,6.66,29-1.66,30.89,2.59,32.83,13-.12,16.2-.67.51-6.36,0-7.18-.46-17.93-.88-25A121.91,121.91,0,0,0,625.52,437.62Z"/></clipPath><clipPath id="clip-path-5"><path class="cls-3" d="M589.22,440.19l20-1.5s-.52,22.46-1.79,28.33,1.13,30-3.4,32.43-13.77,1.44-17.16,1.29-.41-6.16.12-7,.85-17.59,1.44-24.55A260.28,260.28,0,0,0,589.22,440.19Z"/></clipPath><clipPath id="clip-path-6"><path d="M650.08,426.62l25.49.69s-8.38,27.41-10.07,34.36,1.13,36.55-4.68,38.89-17.6,0-21.91-.6-.47-7.51.23-8.49,1.27-21.22,2.1-29.58A132.42,132.42,0,0,1,650.08,426.62Z"/></clipPath><clipPath id="clip-path-7"><path d="M671.67,429.12l25.15-4.18c.74,29.82.73,29.7.4,36.63-.33,7.15,4.36,34.68-.9,38.09s-17.26,3.38-21.62,3.6-1.89-7.29-1.39-8.39.1-21.92-.68-30.29A271.73,271.73,0,0,1,671.67,429.12Z"/></clipPath><clipPath id="clip-path-8"><path class="cls-2" d="M697.73,435.74l-52.12-.31V374.36a17.23,17.23,0,0,1,17.18-17.18h17a17.23,17.23,0,0,1,17.18,17.18Z"/></clipPath></defs><title>japan-masks-foreground</title><g id="Layer_2" data-name="Layer 2"><g id="masks_-JAPAN" data-name="masks -JAPAN"><g id="japan-masks-foreground"><rect class="cls-3" x="60.06" y="446.44" width="14.8" height="12.65" rx="3.57" ry="3.57" transform="translate(499.64 603.68) rotate(117.72)"/><rect class="cls-3" x="69.72" y="329.4" width="48.76" height="48.76" rx="21.12" ry="21.12"/><rect class="cls-3" x="88.77" y="370.29" width="15.5" height="18.33"/><path class="cls-3" d="M72.93,384.8h0a8.66,8.66,0,0,1,8.66,8.66v55.71a0,0,0,0,1,0,0H64.27a0,0,0,0,1,0,0V393.46a8.66,8.66,0,0,1,8.66-8.66Z" transform="translate(75.5 -6.32) rotate(10.27)"/><path class="cls-1" d="M88,382.09h17a17.18,17.18,0,0,1,17.18,17.18v61.07a0,0,0,0,1,0,0H70.86a0,0,0,0,1,0,0V399.27A17.18,17.18,0,0,1,88,382.09Z"/><path class="cls-1" d="M69.72,356s9.43-1.62,12.43-1.62,19.57.94,19.57.94-1.63,6.59-1.61,9.68c0,1.86,1.91,7.8,1.91,7.8s-12.8,2.83-15.71,2.83a41.08,41.08,0,0,1-6.93-.86s-2.95-.89-6.9-7.33S69.72,356,69.72,356Z"/><path class="cls-4" d="M100.9,356c2.12-1.87,6.68-5.06,9.25-3.62,6.58,3.69,4.14,7.67,3.06,9.87-2.62,5.38-12,10-12,10"/><path d="M104.19,326.79c-4.17-6.42-15.17-8.05-24.54-1.42-6.88,4.86-8.5,15.12-11,18.25a44.58,44.58,0,0,1-4,4.5S93.15,347,103,339.24c1.5,4.63,6.31,12.32,8.59,14.54a12.07,12.07,0,0,1,3,5.71s-8.26,9.06-8,12.75a26.69,26.69,0,0,0,1.63,7.21,50.28,50.28,0,0,1,4.62-7.71c7.38-9.61,12.71-21.25,6.75-33.12S109.94,325.2,104.19,326.79Z"/><path class="cls-3" d="M91.67,416.49c5.65-13.5,12.29-33.37,15-34.32-1.66-.27-13.82-.13-18.73-.09a1.88,1.88,0,0,0-1.86,2.08,60.19,60.19,0,0,0,.59,11.77C87.65,403.49,91.67,416.49,91.67,416.49Z"/><path class="cls-1" d="M76.34,455,101.51,459S89.57,485.08,87,491.75s-3.73,36.37-9.81,37.92-17.44-2.31-21.63-3.5.53-7.51,1.35-8.39,4.08-20.87,6-29A132.6,132.6,0,0,1,76.34,455Z"/><g class="cls-5"><polygon points="56.89 517.78 81.16 523.16 77.67 539.95 51.02 530.09 53.02 516.62 56.89 517.78"/></g><path class="cls-1" d="M94.07,461.59l22-12.93s7.44,27.68,9.7,34.47,20.34,30.38,16.65,35.45-14.9,9.35-18.89,11.12-4.38-6.13-4.31-7.33S109,503.71,105.29,496.18A132.48,132.48,0,0,1,94.07,461.59Z"/><g class="cls-6"><polygon points="118.48 520.6 140.7 509.65 152.02 515.13 147.02 534.37 116.77 538.87 114.56 524.26 118.48 520.6"/></g><g class="cls-7"><polygon class="cls-8" points="96.1 421.22 89.67 421.22 91.67 388.15 94.1 388.15 96.1 421.22"/><rect class="cls-8" x="91.11" y="385.12" width="3.5" height="3.5" transform="translate(300.76 47.65) rotate(45)"/></g><rect x="84.48" y="432.39" width="51.67" height="40.58" rx="8.17" ry="8.17"/><rect class="cls-3" x="115.84" y="382.76" width="17.32" height="46.32" rx="8.66" ry="8.66" transform="translate(-209.08 143.26) rotate(-34.73)"/><path class="cls-3" d="M116.53,405.93h17.32a0,0,0,0,1,0,0V434.3a8.66,8.66,0,0,1-8.66,8.66h0a8.66,8.66,0,0,1-8.66-8.66V405.93A0,0,0,0,1,116.53,405.93Z" transform="translate(-152.31 769.15) rotate(-124.73)"/><rect class="cls-3" x="97.27" y="429.7" width="14.8" height="9.2" rx="3.57" ry="3.57" transform="translate(337.76 53.19) rotate(45)"/><path d="M81.88,383.25s-3.61,1.1-5.24,3.2c.76,3.79,10.72,52.84,10.72,52.84l5-2Z"/><ellipse class="cls-3" cx="110.31" cy="356.88" rx="6.5" ry="5.01" transform="translate(-261.46 320.54) rotate(-67.24)"/><circle class="cls-1" cx="749.56" cy="100.83" r="32.43"/><polygon class="cls-1" points="750.25 64.45 746.84 70.37 753.67 70.37 750.25 64.45"/><polygon class="cls-1" points="743.93 64.89 741.59 71.31 748.32 70.12 743.93 64.89"/><polygon class="cls-1" points="737.77 66.41 736.58 73.14 743.01 70.81 737.77 66.41"/><polygon class="cls-1" points="731.97 68.98 731.97 75.82 737.89 72.4 731.97 68.98"/><polygon class="cls-1" points="726.71 72.52 727.9 79.25 733.13 74.86 726.71 72.52"/><polygon class="cls-1" points="722.14 76.92 724.48 83.34 728.87 78.11 722.14 76.92"/><polygon class="cls-1" points="718.4 82.05 721.82 87.97 725.24 82.05 718.4 82.05"/><polygon class="cls-1" points="715.62 87.74 720.01 92.98 722.35 86.56 715.62 87.74"/><polygon class="cls-1" points="713.86 93.84 719.1 98.23 720.28 91.5 713.86 93.84"/><polygon class="cls-1" points="713.19 100.14 719.11 103.56 719.11 96.72 713.19 100.14"/><polygon class="cls-1" points="713.62 106.47 720.04 108.81 718.86 102.08 713.62 106.47"/><polygon class="cls-1" points="715.14 112.63 721.88 113.81 719.54 107.39 715.14 112.63"/><polygon class="cls-1" points="717.72 118.42 724.55 118.42 721.13 112.5 717.72 118.42"/><polygon class="cls-1" points="721.25 123.69 727.99 122.5 723.59 117.26 721.25 123.69"/><polygon class="cls-1" points="725.65 128.26 732.08 125.92 726.84 121.52 725.65 128.26"/><polygon class="cls-1" points="730.78 131.99 736.7 128.57 730.78 125.16 730.78 131.99"/><polygon class="cls-1" points="736.48 134.78 741.71 130.39 735.29 128.05 736.48 134.78"/><polygon class="cls-1" points="742.57 136.54 746.96 131.3 740.23 130.11 742.57 136.54"/><polygon class="cls-1" points="748.88 137.21 752.29 131.29 745.46 131.29 748.88 137.21"/><polygon class="cls-1" points="755.2 136.78 757.54 130.35 750.81 131.54 755.2 136.78"/><polygon class="cls-1" points="761.36 135.25 762.55 128.52 756.12 130.86 761.36 135.25"/><polygon class="cls-1" points="767.16 132.68 767.16 125.84 761.24 129.26 767.16 132.68"/><polygon class="cls-1" points="772.42 129.14 771.23 122.41 766 126.8 772.42 129.14"/><polygon class="cls-1" points="776.99 124.74 774.65 118.32 770.26 123.56 776.99 124.74"/><polygon class="cls-1" points="780.73 119.62 777.31 113.7 773.89 119.62 780.73 119.62"/><polygon class="cls-1" points="783.51 113.92 779.12 108.68 776.78 115.11 783.51 113.92"/><polygon class="cls-1" points="785.27 107.83 780.03 103.43 778.85 110.16 785.27 107.83"/><polygon class="cls-1" points="785.94 101.52 780.02 98.1 780.02 104.94 785.94 101.52"/><polygon class="cls-1" points="785.51 95.19 779.09 92.85 780.27 99.59 785.51 95.19"/><polygon class="cls-1" points="783.98 89.04 777.25 87.85 779.59 94.27 783.98 89.04"/><polygon class="cls-1" points="781.41 83.24 774.58 83.24 778 89.16 781.41 83.24"/><polygon class="cls-1" points="777.87 77.97 771.14 79.16 775.54 84.4 777.87 77.97"/><polygon class="cls-1" points="773.48 73.41 767.05 75.74 772.29 80.14 773.48 73.41"/><polygon class="cls-1" points="768.35 69.67 762.43 73.09 768.35 76.51 768.35 69.67"/><polygon class="cls-1" points="762.65 66.88 757.42 71.28 763.84 73.61 762.65 66.88"/><polygon class="cls-1" points="756.56 65.13 752.17 70.36 758.9 71.55 756.56 65.13"/><circle class="cls-1" cx="28.95" cy="29.4" r="21.12"/><polygon class="cls-1" points="28.95 0 22.66 10.9 35.25 10.9 28.95 0"/><polygon class="cls-1" points="18.9 1.77 16.71 14.17 28.54 9.86 18.9 1.77"/><polygon class="cls-1" points="10.06 6.88 12.24 19.27 21.88 11.18 10.06 6.88"/><polygon class="cls-1" points="3.49 14.7 9.79 25.6 16.08 14.7 3.49 14.7"/><polygon class="cls-1" points="0 24.3 9.64 32.38 11.83 19.99 0 24.3"/><polygon class="cls-1" points="0 34.51 11.83 38.81 9.64 26.42 0 34.51"/><polygon class="cls-1" points="3.49 44.1 16.08 44.1 9.79 33.2 3.49 44.1"/><polygon class="cls-1" points="10.06 51.92 21.88 47.62 12.24 39.53 10.06 51.92"/><polygon class="cls-1" points="18.9 57.03 28.54 48.94 16.71 44.63 18.9 57.03"/><polygon class="cls-1" points="28.95 58.8 35.25 47.9 22.66 47.9 28.95 58.8"/><polygon class="cls-1" points="39.01 57.03 41.2 44.63 29.37 48.94 39.01 57.03"/><polygon class="cls-1" points="47.85 51.92 45.67 39.53 36.03 47.62 47.85 51.92"/><polygon class="cls-1" points="54.42 44.1 48.12 33.2 41.83 44.1 54.42 44.1"/><polygon class="cls-1" points="57.91 34.51 48.27 26.42 46.08 38.81 57.91 34.51"/><polygon class="cls-1" points="57.91 24.3 46.08 19.99 48.27 32.38 57.91 24.3"/><polygon class="cls-1" points="54.42 14.7 41.83 14.7 48.12 25.6 54.42 14.7"/><polygon class="cls-1" points="47.85 6.88 36.03 11.18 45.67 19.27 47.85 6.88"/><polygon class="cls-1" points="39.01 1.77 29.37 9.86 41.2 14.17 39.01 1.77"/><ellipse class="cls-8" cx="198.02" cy="240.44" rx="9.5" ry="16"/><ellipse class="cls-8" cx="186.71" cy="245.12" rx="9.5" ry="16" transform="translate(-118.64 203.82) rotate(-45)"/><ellipse class="cls-8" cx="182.02" cy="256.44" rx="16" ry="9.5"/><ellipse class="cls-8" cx="186.71" cy="267.75" rx="16" ry="9.5" transform="translate(-134.64 210.45) rotate(-45)"/><ellipse class="cls-8" cx="198.02" cy="272.44" rx="9.5" ry="16"/><ellipse class="cls-8" cx="209.34" cy="267.75" rx="9.5" ry="16" transform="translate(-128.01 226.45) rotate(-45)"/><ellipse class="cls-8" cx="214.02" cy="256.44" rx="16" ry="9.5"/><ellipse class="cls-8" cx="209.34" cy="245.12" rx="16" ry="9.5" transform="translate(-112.01 219.82) rotate(-45)"/><circle class="cls-9" cx="198.02" cy="256.44" r="10.9"/><g id="lover"><path class="cls-1" d="M624,356.55c3.23,6.89,4.1,12.46,5.55,17.58,5.92-18-.49-39.95-12.42-33.31"/><rect class="cls-3" x="565.52" y="428.06" width="15.48" height="13.24" rx="3.57" ry="3.57" transform="translate(1283.13 317.77) rotate(133.48)"/><path class="cls-3" d="M578.9,379.61h13.6a0,0,0,0,1,0,0v47.74a6.8,6.8,0,0,1-6.8,6.8h0a6.8,6.8,0,0,1-6.8-6.8V379.61A0,0,0,0,1,578.9,379.61Z" transform="translate(977.35 1002.88) rotate(-158.1)"/><path class="cls-3" d="M625.52,437.62l-18.85.78s5.57,23.1,6.66,29-1.66,30.89,2.59,32.83,13-.12,16.2-.67.51-6.36,0-7.18-.46-17.93-.88-25A121.91,121.91,0,0,0,625.52,437.62Z"/><g class="cls-10"><polygon class="cls-8" points="632.14 492.35 613.79 494.32 614.31 508.77 634.94 503.29 635.1 491.78 632.14 492.35"/></g><path class="cls-3" d="M589.22,440.19l20-1.5s-.52,22.46-1.79,28.33,1.13,30-3.4,32.43-13.77,1.44-17.16,1.29-.41-6.16.12-7,.85-17.59,1.44-24.55A260.28,260.28,0,0,0,589.22,440.19Z"/><g class="cls-11"><polygon class="cls-8" points="587.2 492.14 606.51 492.2 611.83 500.43 600.61 512.86 578.58 505.06 583.08 493.41 587.2 492.14"/></g><path class="cls-1" d="M587.42,438.86h39.84s5.19,41.24,6.67,43.78c-8.61,1.8-18.32,3.23-24.62,3.23s-21.52-1.8-25.34-3.71C586.73,476.66,587.42,438.86,587.42,438.86Z"/><path class="cls-1" d="M589.52,378.61h36a2.16,2.16,0,0,1,2.16,2.16v50a12.42,12.42,0,0,1-12.42,12.42H599.78a12.42,12.42,0,0,1-12.42-12.42v-50a2.16,2.16,0,0,1,2.16-2.16Z" transform="translate(1215.05 821.76) rotate(-180)"/><rect class="cls-3" x="632.06" y="428.26" width="13.92" height="12.41" rx="3.57" ry="3.57" transform="translate(643.89 -338.25) rotate(56.15)"/><path class="cls-3" d="M624,381.86h12.51a0,0,0,0,1,0,0v45.72a6.26,6.26,0,0,1-6.26,6.26h0a6.26,6.26,0,0,1-6.26-6.26V381.86A0,0,0,0,1,624,381.86Z" transform="translate(1349.93 621.2) rotate(163.6)"/><rect class="cls-3" x="588.1" y="333.96" width="41.31" height="41.31" rx="19.14" ry="19.14" transform="translate(1217.5 709.23) rotate(-180)"/><polygon class="cls-3" points="600.13 380.81 605.36 386.79 613.27 380.81 613.27 371.93 600.13 371.93 600.13 380.81"/><path class="cls-8" d="M629.41,356.49s-8-1.37-10.53-1.37-16.58.79-16.58.79a49.61,49.61,0,0,1,1.37,8.21c0,1.57-1.63,6.6-1.63,6.6s10.85,2.4,13.31,2.4a34.64,34.64,0,0,0,5.87-.73s2.5-.75,5.85-6.2S629.41,356.49,629.41,356.49Z"/><path class="cls-12" d="M603,356.49c-1.8-1.58-5.66-4.29-7.83-3.07-5.58,3.13-3.51,6.5-2.6,8.37,2.23,4.55,10.17,8.47,10.17,8.47"/><path class="cls-1" d="M596.86,333.58c6.19-3.4,14.3-4.94,21.61-2s11.08,12.89,11.08,16.18c-2.34-4.73-10.44-11.47-10.44-11.47S603.51,355.86,603,358c-3-1.7-6.37-4.06-6.37-4.06Z"/><path class="cls-1" d="M597.21,333.56c-3.58.11-5.11,2.28-8,5.27s-4.29,7.65-4.29,13.48,5.78,20,11.56,19.62C593.68,358,600.15,343.19,597.21,333.56Z"/><ellipse class="cls-3" cx="595.02" cy="358.46" rx="4.24" ry="5.51" transform="translate(-92.34 258.1) rotate(-22.76)"/><path class="cls-1" d="M583.63,354.69c-4.79,5.92-7,11.12-9.63,15.73-1.41-18.86,10.1-38.65,20.09-29.34"/><path d="M650.08,426.62l25.49.69s-8.38,27.41-10.07,34.36,1.13,36.55-4.68,38.89-17.6,0-21.91-.6-.47-7.51.23-8.49,1.27-21.22,2.1-29.58A132.42,132.42,0,0,1,650.08,426.62Z"/><g class="cls-13"><polygon class="cls-1" points="639.14 491.47 663.91 493.58 662.67 510.69 634.96 504.45 635.15 490.83 639.14 491.47"/></g><path d="M671.67,429.12l25.15-4.18c.74,29.82.73,29.7.4,36.63-.33,7.15,4.36,34.68-.9,38.09s-17.26,3.38-21.62,3.6-1.89-7.29-1.39-8.39.1-21.92-.68-30.29A271.73,271.73,0,0,1,671.67,429.12Z"/><g class="cls-14"><polygon class="cls-1" points="673.27 492.96 697.94 490.72 706.54 499.89 694.97 516.06 665.12 509.4 668.3 494.97 673.27 492.96"/></g><path class="cls-3" d="M648.52,363.27h0a8.66,8.66,0,0,1,8.66,8.66v58a0,0,0,0,1,0,0H639.86a0,0,0,0,1,0,0v-58A8.66,8.66,0,0,1,648.52,363.27Z" transform="translate(38.43 -56.9) rotate(5.18)"/><rect class="cls-3" x="633.79" y="423.11" width="14.8" height="12.65" rx="3.57" ry="3.57" transform="translate(1284.29 2.86) rotate(112.63)"/><path class="cls-1" d="M650.41,360.13h0a8.66,8.66,0,0,1,8.66,8.66v25.14a0,0,0,0,1,0,0H641.75a0,0,0,0,1,0,0V368.79A8.66,8.66,0,0,1,650.41,360.13Z" transform="translate(77.63 -109.91) rotate(10.27)"/><path class="cls-1" d="M697.73,435.74l-52.12-.31V374.36a17.23,17.23,0,0,1,17.18-17.18h17a17.23,17.23,0,0,1,17.18,17.18Z"/><g class="cls-15"><path class="cls-3" d="M682.48,358.8c0,3.07-5.15,7-11.2,7s-10.74-3.9-10.74-7,4.91-5.55,11-5.55S682.48,355.73,682.48,358.8Z"/></g><path class="cls-3" d="M693.63,362.28h11.81a0,0,0,0,1,0,0V423a5.9,5.9,0,0,1-5.9,5.9h0a5.9,5.9,0,0,1-5.9-5.9V362.28A0,0,0,0,1,693.63,362.28Z" transform="translate(1482.3 577.61) rotate(163.6)"/><rect class="cls-3" x="700.71" y="422.06" width="14.8" height="12.65" rx="3.57" ry="3.57" transform="translate(1298.98 -151.1) rotate(104.38)"/><path class="cls-1" d="M682.41,359.87h17.32a0,0,0,0,1,0,0V385a8.66,8.66,0,0,1-8.66,8.66h0a8.66,8.66,0,0,1-8.66-8.66V359.87a0,0,0,0,1,0,0Z" transform="translate(1460.93 540.62) rotate(163.42)"/><rect class="cls-3" x="641.25" y="305.93" width="47.46" height="47.46" rx="21.12" ry="21.12" transform="translate(-40.93 100.38) rotate(-8.38)"/><rect class="cls-3" x="663.37" y="348.38" width="15.5" height="12.67" transform="translate(-44.51 101.54) rotate(-8.38)"/><path class="cls-1" d="M641.8,335.32s8.91-3,11.82-3.39,19.13-1.87,19.13-1.87-.63,6.76-.16,9.82c.28,1.84,3,7.43,3,7.43s-12,4.64-14.84,5.05a39,39,0,0,1-6.84.14s-3-.46-7.77-6.26S641.8,335.32,641.8,335.32Z"/><path class="cls-4" d="M672,330.87c1.83-2.17,5.87-6,8.62-4.94,7.05,2.69,5.22,7,4.47,9.33-1.81,5.7-10.42,11.64-10.42,11.64"/><path class="cls-8" d="M641.76,317.27c-1.85,4-2.49,10.82-2.31,12.94,2.69-4.06,12.13-15.47,13.4-15.45a20.12,20.12,0,0,0-2.91,8.6s8.55-8,9.59-8.71,9.12,6.21,9.12,6.21L670,314s8.29,11.51,7.66,15.9c2.77-6.85,3.27-22.34,3.27-22.34Z"/><rect class="cls-1" x="681.14" y="314.05" width="22" height="1.74" rx="0.87" ry="0.87" transform="translate(-15.51 36.59) rotate(-2.99)"/><path class="cls-8" d="M685.67,311.68s3.1,6.21,5.82,8.09a4.55,4.55,0,0,1-2.92-.92s4.76,15,6.6,16.67c-1.49.73-4.85-1.15-4.85-1.15s-4.9,15.57-4.42,19.37c-2.93-2.54-3.11-8.79-3.11-8.79a17,17,0,0,1-3.45,1.67c2.13-7.44-.9-24.42-.9-24.42l-3.61-12.61Z"/><ellipse class="cls-3" cx="681.47" cy="330.37" rx="6.5" ry="5.01" transform="translate(192.16 908.41) rotate(-75.62)"/><path class="cls-1" d="M688.49,316l-47.57,2.49-.2-3.85c-.5-9.64,5.06-17.84,12.36-18.22l21-1.1c7.29-.38,13.68,7.19,14.18,16.83l.21,3.85"/><polygon class="cls-9" points="670.05 413.24 683.87 389.31 656.23 389.31 670.05 413.24"/><path class="cls-8" d="M670.05,385.33l10.35,17.93H659.69l10.36-17.93m0-4-13.82,23.93h27.64l-13.82-23.93Z"/><path class="cls-8" d="M623.6,294.26c0-.16-.08-.32-.13-.47a6.17,6.17,0,0,0-11.66,4l-.13.05a6.17,6.17,0,1,0-11.65,4,4.22,4.22,0,0,0,.18.45,5.64,5.64,0,0,0,.77,1.3c3.21,4.53,12.29,10,15.76,8.81l.14,0c3.47-1.21,7.2-11.14,6.92-16.68A6,6,0,0,0,623.6,294.26Z"/><path class="cls-8" d="M654.13,275.08c0-.1.08-.2.11-.3a4,4,0,0,0-7.65-2.47l-.09,0a4,4,0,1,0-7.66-2.48,2.81,2.81,0,0,0-.08.31,3.57,3.57,0,0,0-.11,1c-.11,3.63,2.46,10.06,4.74,10.8l.09,0c2.28.74,8.13-3,10.17-6A4.23,4.23,0,0,0,654.13,275.08Z"/></g></g></g></g></svg>