<svg xmlns="http://www.w3.org/2000/svg" xmlns:xlink="http://www.w3.org/1999/xlink" viewBox="0 0 676.5 477.03"><defs><style>.cls-1{fill:#fff;}.cls-2{fill:#0041fa;}.cls-3{font-size:9.34px;fill:#ffdc34;font-family:OpenSans-ExtraBold, Open Sans;font-weight:700;}.cls-4{clip-path:url(#clip-path);}.cls-5{fill:#fa0064;}.cls-6,.cls-7{fill:none;stroke:#0041fa;stroke-miterlimit:10;}.cls-6{stroke-width:5px;}.cls-7{stroke-width:3px;}</style><clipPath id="clip-path"><path class="cls-1" d="M154.5,418.9c7.56,17.94-4.11,31.49-27.54,41.37S85.68,469,78.12,451.09,66.82,407,98.81,393.48C130.12,380.28,146.93,401,154.5,418.9Z"/></clipPath></defs><title>japan-panda-background</title><g id="Layer_2" data-name="Layer 2"><g id="panda-JAPAN"><g id="japan-panda-background"><path class="cls-2" d="M305.45,282.93c-12.2,17-5.83,36.88-5.83,36.88a35.51,35.51,0,0,0,15.58-21.67c3.49-13.64,2.94-30.41,2.94-30.41S308.34,278.91,305.45,282.93Z"/><path class="cls-2" d="M.41,240.05C-2,253.23,7.09,263,7.09,263a22.72,22.72,0,0,0,3.12-16.81c-1.69-8.86-6.58-18.44-6.58-18.44S1,236.93.41,240.05Z"/><path class="cls-2" d="M655.11,378.62c5.3,16,21.3,21.3,21.3,21.3a28.64,28.64,0,0,0-6.76-20.45c-7.24-8.75-18.44-16.35-18.44-16.35S653.85,374.82,655.11,378.62Z"/><path class="cls-2" d="M163.71,409.76c16-.34,26.11,2.41,35.68,12.2s18.94,12.73,27.58,15.37,14.79,4.92,14.79,4.92l-9.36,2.33,5.39,8s-14.66-2.16-19.62-3.14-22.62-5.27-27.52-12.25-10.43-12-16.8-12.27-19.93-.9-23-1.79-13.22-3.36-15.78-10.1,23-9.84,23-9.84Z"/><text class="cls-3" transform="matrix(1.21, -0.09, -0.15, 0.96, 160.28, 420.91)">I</text><text class="cls-3" transform="matrix(1.2, -0.03, -0.2, 0.96, 164.13, 420.64)"> </text><text class="cls-3" transform="matrix(1.18, 0.06, -0.28, 0.96, 166.92, 420.48)">L</text><text class="cls-3" transform="matrix(1.1, 0.25, -0.45, 0.94, 173.13, 420.64)">O</text><text class="cls-3" transform="matrix(0.96, 0.49, -0.64, 0.87, 181.02, 422.44)">V</text><text class="cls-3" transform="matrix(0.81, 0.66, -0.77, 0.78, 186.94, 425.57)">E</text><text class="cls-3" transform="matrix(0.74, 0.72, -0.82, 0.74, 190.98, 428.92)"> </text><text class="cls-3" transform="matrix(0.72, 0.75, -0.84, 0.72, 192.77, 430.65)"> </text><text class="cls-3" transform="matrix(0.71, 0.76, -0.85, 0.72, 194.49, 432.45)">J</text><text class="cls-3" transform="matrix(0.77, 0.7, -0.8, 0.76, 196.79, 435.19)">A</text><text class="cls-3" transform="matrix(0.96, 0.48, -0.64, 0.87, 202.84, 440.28)">P</text><text class="cls-3" transform="matrix(1.05, 0.35, -0.53, 0.91, 208.94, 443.28)">A</text><text class="cls-3" transform="matrix(1.1, 0.25, -0.45, 0.94, 216.4, 445.8)">N</text><path class="cls-1" d="M154.5,418.9c7.56,17.94-4.11,31.49-27.54,41.37S85.68,469,78.12,451.09,66.82,407,98.81,393.48C130.12,380.28,146.93,401,154.5,418.9Z"/><g class="cls-4"><path d="M104,405.85c20.19-8.51,36.51-10.51,46.59-3.37a29.71,29.71,0,0,0-1.46-4.39c-7.56-17.94-24.9-38.39-58.6-24.19C56.13,388.41,59.39,414.8,67,432.74a28.17,28.17,0,0,0,2.12,4.1C71,424.65,83.83,414.36,104,405.85Z"/></g><path d="M45.37,368.69c-5.85,5.48-8.92,9.55-7.71,19.8.84,7.09,8.5,17,17.54,22.88C67.34,419.29,75.05,416,75.05,416l11.78-7.13-.8-29.2Z"/><path d="M119.49,340.85c8-.37,13.06.28,19.55,8.31,4.49,5.55,6.21,17.93,4.12,28.53-2.8,14.22-10.51,17.47-10.51,17.47l-13.33,3.45L99,377.65Z"/><path d="M61.43,372.94c-8,3.39-20.08,1.85-23.18-5.49s-2.34-17.35,5.69-20.74,20.29,1.15,23.38,8.49S69.46,369.56,61.43,372.94Z"/><path d="M110.53,352.25c8-3.38,15.34-13.09,12.25-20.43S112,318,104,321.41s-13.35,15.32-10.26,22.66S102.5,355.63,110.53,352.25Z"/><path class="cls-1" d="M128.31,361.47c6.45,15.31-5.93,31.59-26.1,40.09s-40.46,6-46.92-9.31S49.34,353,76.87,341.43C103.81,330.07,121.86,346.16,128.31,361.47Z"/><path d="M81.65,369.34c2.32,5.49,1.26,13.74-3.76,15.86S66,386.8,63.7,381.31s.79-13.89,5.81-16S79.34,363.85,81.65,369.34Z"/><path d="M95.18,363.63c2.32,5.5,9,10.5,14,8.39s9.44-7.38,7.12-12.88-10.48-9.13-15.5-7S92.87,358.14,95.18,363.63Z"/><ellipse cx="93.9" cy="378.73" rx="3.83" ry="2.49" transform="translate(-139.73 66.21) rotate(-22.86)"/><path class="cls-5" d="M98.05,388.56c1.36-.57,1.4-4.24,1.4-4.24L94,386.6S96.7,389.14,98.05,388.56Z"/><path d="M122.19,458.27c1.17-6.15,8.33-4.07,10.09-1.21s1.64,6.52-1.68,8.19-7.93,1.24-9.22-2.15S121.67,461,122.19,458.27Z"/><line class="cls-6" x1="64.6" y1="475.58" x2="135.8" y2="375.98"/><path class="cls-2" d="M141.23,371.62a23.39,23.39,0,0,1,13.26-.41s-6.12,4.53-10.83,6.19a13.53,13.53,0,0,1-8.75.06S138.09,372.75,141.23,371.62Z"/><path class="cls-2" d="M149.14,397.58a23.33,23.33,0,0,1,10.47,8.15s-7.6-.41-12.29-2.14a13.55,13.55,0,0,1-6.77-5.54S146,396.45,149.14,397.58Z"/><path class="cls-2" d="M129.9,370.52a23.34,23.34,0,0,1,.37-13.27s4.16,6.37,5.54,11.17a13.54,13.54,0,0,1-.46,8.75S130.83,373.71,129.9,370.52Z"/><path class="cls-2" d="M96.66,401.46A23.31,23.31,0,0,1,97,388.2s4.16,6.37,5.54,11.17a13.52,13.52,0,0,1-.46,8.74S97.6,404.66,96.66,401.46Z"/><path class="cls-2" d="M135,367.72a28,28,0,0,1,12-10.36s-2.27,8.82-5.4,13.9a16.22,16.22,0,0,1-8.1,6.64S133,371.13,135,367.72Z"/><path class="cls-2" d="M140.76,390.92a20,20,0,0,1,8.6-7.41s-1.63,6.3-3.87,9.94a11.58,11.58,0,0,1-5.79,4.75S139.28,393.35,140.76,390.92Z"/><path class="cls-2" d="M102.18,400.84a20,20,0,0,1,8.6-7.41s-1.63,6.31-3.87,9.94a11.58,11.58,0,0,1-5.79,4.75S100.7,403.28,102.18,400.84Z"/><line class="cls-7" x1="114.79" y1="405.37" x2="141.4" y2="397.9"/><line class="cls-7" x1="101.45" y1="404.19" x2="104.31" y2="421.18"/><path d="M56.63,432c4.69-7.75,7.79-7.16,9.36-6.72s2.9,6.75,5.64,8.44,7.67,4.06,12.1,4,11.68,3.39,14.54,8.85,3.58,11.79-.8,15.86-17.5,4.09-25.69-1.1c-7.75-4.91-16.18-13.41-18-19S54.51,435.51,56.63,432Z"/><path d="M151.64,392c-8.82-2-10.56.58-11.35,2s2.82,6.79,2.11,9.93-2.45,8.33-5.55,11.48S131.11,426.12,133,432s5.94,10.81,11.92,10.51,15.14-9.67,17.15-19.15c1.9-9,1.7-21-1.05-26.17S155.62,392.89,151.64,392Z"/><path class="cls-2" d="M37.75,350.87c-1.64,3.72-3.9,14.88-2.77,15.69s23.21-5.89,28-4.07,9.62,4.21,9.62,4.21l-1.39-8,6-3.36s-9.22-7.32-20-6.43S37.75,350.87,37.75,350.87Z"/><path class="cls-2" d="M191.88,73.94c14.22-14.25,42-48,76.45-46.06,13.11.75,19.77,7.55,28.39,13.25,2.9,3.88,6.08,15.41,7.12,21.34-.83,5.23-1.44,8.69-8,18.39-15.7,18.64-28.14,24.52-40.23,37.28S235.56,149.08,222.29,170c-12.12,19.07-54.62,42.92-81.11,24.28s-20.92-49.75-10.12-68.8S167.86,98,191.88,73.94Z"/><path class="cls-5" d="M290.31,69.87a31.78,31.78,0,0,0,6.41-28.74c-5.73-7.24-15.16-12.49-28.39-13.25-34.41-2-62.23,31.81-76.45,46.06-24,24.07-50,32.45-60.82,51.5-7.17,12.66-6.86,22.77-1.55,38.88a46.64,46.64,0,0,0,11.28,11.07c26.49,18.64,63.83,2.66,75.94-16.41,13.28-20.89,18.25-44.9,30.33-57.66S274.61,88.51,290.31,69.87Z"/><ellipse cx="162.2" cy="80" rx="21.47" ry="14.46" transform="translate(50.11 221.94) rotate(-77.95)"/><ellipse cx="226.21" cy="117.88" rx="21.11" ry="14.22" transform="translate(-19.51 186.34) rotate(-43.09)"/><path class="cls-1" d="M227.48,137c-3.09,9.2-4.87,11.94-10.27,21.94-12.36,22.92-40.85,40.88-73.65,25.18S108,143.57,115.72,119.84c5.81-17.77,14.77-15.47,31.49-34.23,0,0,26.44-8.28,50,3.18S227.48,137,227.48,137Z"/><path d="M138.78,97.52c6.76-4.91,15.67-1.43,19.71,3.46s2.62,19.13-5.48,21.82-19.28,8-22.25-1.21S130,103.91,138.78,97.52Z"/><circle class="cls-1" cx="151.84" cy="110.12" r="2.86"/><path d="M202.56,133.46c2.47-8.63-4.66-16.1-11.37-18.17s-21,4.91-20.68,14-.84,22.28,10,21.59S199.33,144.71,202.56,133.46Z"/><circle class="cls-1" cx="192.61" cy="128.7" r="2.86"/><circle cx="145.83" cy="132.84" r="4.2"/><path class="cls-2" d="M240.31,20.4c6,21.17,26.54,28.94,26.54,28.94s2.45-13.67-7.65-27C250.27,10.53,236.1,0,236.1,0S238.88,15.39,240.31,20.4Z"/></g></g></g></svg>