<svg xmlns="http://www.w3.org/2000/svg" xmlns:xlink="http://www.w3.org/1999/xlink" viewBox="0 0 508.78 373.58"><defs><style>.cls-1,.cls-4{fill:#fff;}.cls-1,.cls-15,.cls-5,.cls-7{stroke:#fff;}.cls-1,.cls-15,.cls-16,.cls-5,.cls-7{stroke-miterlimit:10;}.cls-1,.cls-7{stroke-width:2px;}.cls-2{fill:#0041fa;}.cls-3{fill:#fa0064;}.cls-15,.cls-16,.cls-5,.cls-7{fill:none;}.cls-5{stroke-width:7px;}.cls-6{clip-path:url(#clip-path);}.cls-8{clip-path:url(#clip-path-2);}.cls-9{clip-path:url(#clip-path-3);}.cls-10{clip-path:url(#clip-path-4);}.cls-11{clip-path:url(#clip-path-5);}.cls-12{clip-path:url(#clip-path-6);}.cls-13{clip-path:url(#clip-path-7);}.cls-14{clip-path:url(#clip-path-8);}.cls-16{stroke:#0041fa;stroke-width:10px;}.cls-17{clip-path:url(#clip-path-9);}</style><clipPath id="clip-path"><path class="cls-1" d="M333.21,235.52c-4.54,3.4-13.72,7.28-12,8.33s5.92,7.36,12,8.3,23.72-8.36,30.11-7.31.41-16.93-1.17-19.33S335.73,233.63,333.21,235.52Z"/></clipPath><clipPath id="clip-path-2"><path class="cls-1" d="M281.22,233.85c-4.54,3.4-8.68,11.44-6.94,12.49s13.51,6.65,19.58,7.59,16.64-6.05,23-5,.41-16.93-1.17-19.33S283.74,232,281.22,233.85Z"/></clipPath><clipPath id="clip-path-3"><path class="cls-1" d="M285.5,254.61c11.4-3.52,23.5-4.17,28.5-5.17s17,5.17,17,5.17-2.87,6.06,1.63,8.56-18.5,14.5-18.5,14.5-31-3.9-32.41-8.15C280.45,265.59,272.83,258.52,285.5,254.61Z"/></clipPath><clipPath id="clip-path-4"><path class="cls-1" d="M322.06,254.83c11.4-3.52,31-7.48,36-8.48s17.5,9.17,17.5,9.17,2.61,11-1.84,19.33c-3.84,5.66-20.75,12.83-20.75,12.83s-18.18-1.82-29.57-4.4a6.21,6.21,0,0,1-4.8-6.86C319.56,269.2,321.26,261.35,322.06,254.83Z"/></clipPath><clipPath id="clip-path-5"><path class="cls-1" d="M346.72,278.9c11.41-3.52,21.75-9,26.75-10s26.75,10.74,26.75,10.74,2.62,11-1.83,19.33c-3.84,5.66-22.07,6.43-22.07,6.43a110.77,110.77,0,0,1-22.35-2.5c-3.12-.71-11.12.82-10.7-2.35C344.22,293.28,345.93,285.42,346.72,278.9Z"/></clipPath><clipPath id="clip-path-6"><path class="cls-1" d="M216.89,244.85c-3,4.81,12.33,18.29,14.33,18.65s15,1.31,21,0,13.34-11.65,19.67-13-17.67-18-20-19.67S218.56,242.18,216.89,244.85Z"/></clipPath><clipPath id="clip-path-7"><path class="cls-1" d="M242.56,254c-3,4.81-7.86,27.48-5.86,27.83s22.86,8.65,28.86,7.33,14-7.66,20.33-9c2.8-.59,6.53-7.5,4.67-11.39-2.35-4.91-11-7-12.27-7.94C276,259.18,244.22,251.35,242.56,254Z"/></clipPath><clipPath id="clip-path-8"><path class="cls-1" d="M270,278.35c-3,4.82-7.86,27.48-5.86,27.84s24.36,2,30.36.66,13.5,1.84,19.84.5c2.8-.59-2-7.72-3.84-11.62-2.34-4.9-3.46-9.62-4.76-10.54C303.37,283.52,271.64,275.69,270,278.35Z"/></clipPath><clipPath id="clip-path-9"><ellipse class="cls-2" cx="308.46" cy="15.46" rx="70.27" ry="13.47"/></clipPath></defs><title>japan-mapo-background</title><g id="Layer_2" data-name="Layer 2"><g id="mapo-tofu-JAPAN"><g id="japan-mapo-background"><ellipse class="cls-3" cx="308.46" cy="15.46" rx="74.45" ry="15.46"/><ellipse class="cls-3" cx="308.46" cy="16.47" rx="74.35" ry="15.46"/><ellipse class="cls-3" cx="308.46" cy="17.48" rx="74.25" ry="15.46"/><ellipse class="cls-3" cx="308.46" cy="18.49" rx="74.14" ry="15.46"/><ellipse class="cls-3" cx="308.46" cy="19.51" rx="74.04" ry="15.46"/><ellipse class="cls-3" cx="308.46" cy="20.52" rx="73.94" ry="15.46"/><ellipse class="cls-3" cx="308.46" cy="21.53" rx="73.84" ry="15.46"/><ellipse class="cls-3" cx="308.46" cy="22.54" rx="73.74" ry="15.46"/><ellipse class="cls-3" cx="308.46" cy="23.55" rx="73.63" ry="15.46"/><ellipse class="cls-3" cx="308.46" cy="24.57" rx="73.53" ry="15.46"/><ellipse class="cls-3" cx="308.46" cy="25.58" rx="73.43" ry="15.46"/><ellipse class="cls-3" cx="308.46" cy="26.59" rx="73.33" ry="15.46"/><ellipse class="cls-3" cx="308.46" cy="27.6" rx="73.22" ry="15.46"/><ellipse class="cls-3" cx="308.46" cy="28.62" rx="73.12" ry="15.46"/><ellipse class="cls-3" cx="308.46" cy="29.63" rx="73.02" ry="15.46"/><ellipse class="cls-3" cx="308.46" cy="30.64" rx="72.92" ry="15.46"/><ellipse class="cls-3" cx="308.46" cy="31.65" rx="72.82" ry="15.46"/><ellipse class="cls-3" cx="308.46" cy="32.67" rx="72.71" ry="15.46"/><ellipse class="cls-3" cx="308.46" cy="33.68" rx="72.61" ry="15.46"/><ellipse class="cls-3" cx="308.46" cy="34.69" rx="72.51" ry="15.46"/><ellipse class="cls-3" cx="308.46" cy="35.7" rx="72.41" ry="15.46"/><ellipse class="cls-3" cx="308.46" cy="36.71" rx="72.3" ry="15.46"/><ellipse class="cls-3" cx="308.46" cy="37.73" rx="72.2" ry="15.46"/><ellipse class="cls-3" cx="308.46" cy="38.74" rx="72.1" ry="15.46"/><ellipse class="cls-3" cx="308.46" cy="39.75" rx="72" ry="15.46"/><ellipse class="cls-3" cx="308.46" cy="40.76" rx="71.9" ry="15.46"/><ellipse class="cls-3" cx="308.46" cy="41.78" rx="71.79" ry="15.46"/><ellipse class="cls-3" cx="308.46" cy="42.79" rx="71.69" ry="15.46"/><ellipse class="cls-3" cx="308.46" cy="43.8" rx="71.59" ry="15.46"/><ellipse class="cls-3" cx="308.46" cy="44.81" rx="71.49" ry="15.46"/><ellipse class="cls-3" cx="308.46" cy="45.82" rx="71.38" ry="15.46"/><ellipse class="cls-3" cx="308.46" cy="46.84" rx="71.28" ry="15.46"/><ellipse class="cls-3" cx="308.46" cy="47.85" rx="71.18" ry="15.46"/><ellipse class="cls-3" cx="308.46" cy="48.86" rx="71.08" ry="15.46"/><ellipse class="cls-3" cx="308.46" cy="49.87" rx="70.98" ry="15.46"/><ellipse class="cls-3" cx="308.46" cy="50.89" rx="70.87" ry="15.46"/><ellipse class="cls-3" cx="308.46" cy="51.9" rx="70.77" ry="15.46"/><ellipse class="cls-3" cx="308.46" cy="52.91" rx="70.67" ry="15.46"/><ellipse class="cls-3" cx="308.46" cy="53.92" rx="70.57" ry="15.46"/><ellipse class="cls-3" cx="308.46" cy="54.93" rx="70.46" ry="15.46"/><ellipse class="cls-3" cx="308.46" cy="55.95" rx="70.36" ry="15.46"/><ellipse class="cls-3" cx="308.46" cy="56.96" rx="70.26" ry="15.46"/><ellipse class="cls-3" cx="308.46" cy="57.97" rx="70.16" ry="15.46"/><ellipse class="cls-3" cx="308.46" cy="58.98" rx="70.06" ry="15.46"/><ellipse class="cls-3" cx="308.46" cy="60" rx="69.95" ry="15.46"/><ellipse class="cls-3" cx="308.46" cy="61.01" rx="69.85" ry="15.46"/><ellipse class="cls-3" cx="308.46" cy="62.02" rx="69.75" ry="15.46"/><ellipse class="cls-3" cx="308.46" cy="63.03" rx="69.65" ry="15.46"/><ellipse class="cls-3" cx="308.46" cy="64.04" rx="69.54" ry="15.46"/><ellipse class="cls-3" cx="308.46" cy="65.06" rx="69.44" ry="15.46"/><ellipse class="cls-3" cx="308.46" cy="66.07" rx="69.34" ry="15.46"/><ellipse class="cls-3" cx="308.46" cy="67.08" rx="69.24" ry="15.46"/><ellipse class="cls-3" cx="308.46" cy="68.09" rx="69.14" ry="15.46"/><ellipse class="cls-3" cx="308.46" cy="69.11" rx="69.03" ry="15.46"/><ellipse class="cls-3" cx="308.46" cy="70.12" rx="68.93" ry="15.46"/><ellipse class="cls-3" cx="308.46" cy="71.13" rx="68.83" ry="15.46"/><ellipse class="cls-3" cx="308.46" cy="72.14" rx="68.73" ry="15.46"/><ellipse class="cls-3" cx="308.46" cy="73.84" rx="68.46" ry="15.49"/><ellipse class="cls-3" cx="308.46" cy="75.55" rx="68.2" ry="15.53"/><ellipse class="cls-3" cx="308.46" cy="77.25" rx="67.94" ry="15.57"/><ellipse class="cls-3" cx="308.46" cy="78.95" rx="67.68" ry="15.6"/><ellipse class="cls-3" cx="308.46" cy="80.65" rx="67.42" ry="15.64"/><ellipse class="cls-3" cx="308.46" cy="82.36" rx="67.16" ry="15.67"/><ellipse class="cls-3" cx="308.46" cy="84.06" rx="66.9" ry="15.71"/><ellipse class="cls-3" cx="308.46" cy="85.76" rx="66.63" ry="15.75"/><ellipse class="cls-3" cx="308.46" cy="87.46" rx="66.37" ry="15.78"/><ellipse class="cls-3" cx="308.46" cy="89.16" rx="66.11" ry="15.82"/><ellipse class="cls-3" cx="308.46" cy="90.87" rx="65.85" ry="15.85"/><ellipse class="cls-3" cx="308.46" cy="92.57" rx="65.59" ry="15.89"/><ellipse class="cls-3" cx="308.46" cy="94.27" rx="65.33" ry="15.93"/><ellipse class="cls-3" cx="308.46" cy="95.97" rx="65.06" ry="15.96"/><ellipse class="cls-3" cx="308.46" cy="97.67" rx="64.8" ry="16"/><ellipse class="cls-3" cx="308.46" cy="99.38" rx="64.54" ry="16.04"/><ellipse class="cls-3" cx="308.46" cy="101.08" rx="64.28" ry="16.07"/><ellipse class="cls-3" cx="308.46" cy="102.78" rx="64.02" ry="16.11"/><ellipse class="cls-3" cx="308.46" cy="104.48" rx="63.76" ry="16.14"/><ellipse class="cls-3" cx="308.46" cy="106.18" rx="63.49" ry="16.18"/><ellipse class="cls-3" cx="308.46" cy="107.89" rx="63.23" ry="16.22"/><ellipse class="cls-3" cx="308.46" cy="109.59" rx="62.97" ry="16.25"/><ellipse class="cls-3" cx="308.46" cy="111.29" rx="62.71" ry="16.29"/><ellipse class="cls-3" cx="308.46" cy="112.99" rx="62.45" ry="16.32"/><ellipse class="cls-3" cx="308.46" cy="114.69" rx="62.19" ry="16.36"/><ellipse class="cls-3" cx="308.46" cy="116.4" rx="61.92" ry="16.4"/><ellipse class="cls-3" cx="308.46" cy="118.1" rx="61.66" ry="16.43"/><ellipse class="cls-3" cx="308.46" cy="119.8" rx="61.4" ry="16.47"/><ellipse class="cls-3" cx="308.46" cy="121.5" rx="61.14" ry="16.51"/><ellipse class="cls-3" cx="308.46" cy="123.21" rx="60.88" ry="16.54"/><ellipse class="cls-3" cx="308.46" cy="124.91" rx="60.62" ry="16.58"/><ellipse class="cls-3" cx="308.46" cy="126.61" rx="60.36" ry="16.61"/><ellipse class="cls-3" cx="308.46" cy="128.31" rx="60.09" ry="16.65"/><ellipse class="cls-3" cx="308.46" cy="130.01" rx="59.83" ry="16.69"/><ellipse class="cls-3" cx="308.46" cy="131.72" rx="59.57" ry="16.72"/><ellipse class="cls-3" cx="308.46" cy="133.42" rx="59.31" ry="16.76"/><ellipse class="cls-3" cx="308.46" cy="135.12" rx="59.05" ry="16.8"/><ellipse class="cls-3" cx="308.46" cy="136.82" rx="58.79" ry="16.83"/><ellipse class="cls-3" cx="308.46" cy="138.52" rx="58.52" ry="16.87"/><ellipse class="cls-3" cx="308.46" cy="140.23" rx="58.26" ry="16.9"/><ellipse class="cls-3" cx="308.46" cy="141.93" rx="58" ry="16.94"/><ellipse class="cls-3" cx="308.46" cy="143.63" rx="57.74" ry="16.98"/><ellipse class="cls-3" cx="308.46" cy="145.33" rx="57.48" ry="17.01"/><ellipse class="cls-3" cx="308.46" cy="147.03" rx="57.22" ry="17.05"/><ellipse class="cls-3" cx="308.46" cy="148.74" rx="56.95" ry="17.08"/><ellipse class="cls-3" cx="308.46" cy="150.44" rx="56.69" ry="17.12"/><ellipse class="cls-3" cx="308.46" cy="152.14" rx="56.43" ry="17.16"/><ellipse class="cls-3" cx="308.46" cy="153.84" rx="56.17" ry="17.19"/><ellipse class="cls-3" cx="308.46" cy="155.54" rx="55.91" ry="17.23"/><ellipse class="cls-3" cx="308.46" cy="157.25" rx="55.65" ry="17.27"/><ellipse class="cls-3" cx="308.46" cy="158.95" rx="55.38" ry="17.3"/><ellipse class="cls-3" cx="308.46" cy="160.65" rx="55.12" ry="17.34"/><ellipse class="cls-3" cx="308.46" cy="162.35" rx="54.86" ry="17.37"/><ellipse class="cls-3" cx="308.46" cy="164.05" rx="54.6" ry="17.41"/><ellipse class="cls-3" cx="308.46" cy="165.76" rx="54.34" ry="17.45"/><ellipse class="cls-3" cx="308.46" cy="167.46" rx="54.08" ry="17.48"/><ellipse class="cls-4" cx="254.39" cy="314.63" rx="51.15" ry="155.42" transform="translate(-104.7 501.08) rotate(-78.48)"/><ellipse class="cls-2" cx="254.39" cy="253.15" rx="85.23" ry="258.99" transform="translate(-44.46 451.87) rotate(-78.48)"/><path class="cls-5" d="M71.53,211.62c14.11-13.14,45.76-21.26,91.6-21.26,91.68,0,205.41,32.49,254,72.57,10.55,8.69,17.16,17,20.12,24.75"/><path class="cls-3" d="M241.88,197.21c-35.83-4.69-41,6-43,14s-24.67,1.34-30.67,0-25,6.4-27.33,10.67c-8.67,16,37.33,24.61,36,31.3s20,17,19.33,25.52,32.67,25.18,63.34,23.85,34.86,1.22,46.19,7.14,51.14,9.52,73.81,2.86,55.21-3.63,64.66-18c8-12.17-22.66-41.34-32.66-46.67s-64-30-78-34-15.67-2-21-4-22.34-10.92-34.34-13.79S241.88,197.21,241.88,197.21Z"/><path class="cls-4" d="M333.21,235.52c-4.54,3.4-13.72,7.28-12,8.33s5.92,7.36,12,8.3,23.72-8.36,30.11-7.31.41-16.93-1.17-19.33S335.73,233.63,333.21,235.52Z"/><g class="cls-6"><path class="cls-3" d="M366.2,242.71s-21.4-8.32-24.14-4S343.27,261,343.27,261l30.35-5Z"/></g><path class="cls-7" d="M333.21,235.52c-4.54,3.4-13.72,7.28-12,8.33s5.92,7.36,12,8.3,23.72-8.36,30.11-7.31.41-16.93-1.17-19.33S335.73,233.63,333.21,235.52Z"/><path class="cls-3" d="M87.56,196.85c15.76-3.4,19.33,4,27.66,4s15.67-2.33,13.34,6.33-8,10-13,9.67-4-3-9.67-3,3,11.67,0,11-10.67-8-18.33-8.67S70.56,200.52,87.56,196.85Z"/><path class="cls-2" d="M241.27,229.14a4.5,4.5,0,0,1,1.65,2.67c.26,1.65-4.23,4.76-4.23,4.76l-2.46-2.46,2.92-3.71Z"/><circle class="cls-2" cx="273.87" cy="257.12" r="3.5"/><circle class="cls-2" cx="321.47" cy="241.95" r="3.5"/><circle class="cls-2" cx="362.7" cy="245.83" r="3.5"/><circle class="cls-2" cx="399.69" cy="260.36" r="2.2"/><circle class="cls-2" cx="392.19" cy="255.03" r="3.37"/><circle class="cls-2" cx="403.43" cy="261.53" r="4.4"/><circle class="cls-2" cx="413.17" cy="271.99" r="2.75"/><circle class="cls-2" cx="387.71" cy="256.01" r="2.39"/><circle class="cls-2" cx="380.87" cy="242.68" r="2.04"/><circle class="cls-2" cx="390.65" cy="263.12" r="1.48"/><circle class="cls-2" cx="319.77" cy="237.2" r="2.09"/><path class="cls-4" d="M281.22,233.85c-4.54,3.4-8.68,11.44-6.94,12.49s13.51,6.65,19.58,7.59,16.64-6.05,23-5,.41-16.93-1.17-19.33S283.74,232,281.22,233.85Z"/><g class="cls-8"><path class="cls-3" d="M316.89,228.94s-17.33,2.86-20.07,7.16,2.06,20,2.06,20l30.35-5Z"/></g><path class="cls-7" d="M281.22,233.85c-4.54,3.4-8.68,11.44-6.94,12.49s13.51,6.65,19.58,7.59,16.64-6.05,23-5,.41-16.93-1.17-19.33S283.74,232,281.22,233.85Z"/><circle class="cls-2" cx="298.9" cy="251.66" r="3.5"/><circle class="cls-2" cx="309.14" cy="287.62" r="2.17"/><circle class="cls-2" cx="306.14" cy="283.14" r="2.56"/><circle class="cls-2" cx="302.4" cy="282.64" r="1.18"/><path class="cls-4" d="M285.5,254.61c11.4-3.52,23.5-4.17,28.5-5.17s17,5.17,17,5.17-2.87,6.06,1.63,8.56-18.5,14.5-18.5,14.5-31-3.9-32.41-8.15C280.45,265.59,272.83,258.52,285.5,254.61Z"/><g class="cls-9"><path class="cls-3" d="M337.58,250.77c-3.5,2.16-16,9.68-19,10.06s-12.17-2.7-14.19-.73,1.95,20.06.78,24.84,35.11-1.63,35.11-1.63l5.88-19.87Z"/></g><path class="cls-7" d="M285.5,254.61c11.4-3.52,23.5-4.17,28.5-5.17s17,5.17,17,5.17-2.87,6.06,1.63,8.56-18.5,14.5-18.5,14.5-31-3.9-32.41-8.15C280.45,265.59,272.83,258.52,285.5,254.61Z"/><path class="cls-4" d="M322.06,254.83c11.4-3.52,31-7.48,36-8.48s17.5,9.17,17.5,9.17,2.61,11-1.84,19.33c-3.84,5.66-20.75,12.83-20.75,12.83s-18.18-1.82-29.57-4.4a6.21,6.21,0,0,1-4.8-6.86C319.56,269.2,321.26,261.35,322.06,254.83Z"/><g class="cls-10"><path class="cls-3" d="M353.6,256.68c3.83,1.5,15.25-1,18.25-1.16s13.75,2.83,16.08,4.41,1.67,20.08,3.67,24.58-34.83,4.67-34.83,4.67l-9.34-18.5Z"/></g><path class="cls-7" d="M322.06,254.83c11.4-3.52,31-7.48,36-8.48s17.5,9.17,17.5,9.17,2.61,11-1.84,19.33c-3.84,5.66-20.75,12.83-20.75,12.83s-18.18-1.82-29.57-4.4a6.21,6.21,0,0,1-4.8-6.86C319.56,269.2,321.26,261.35,322.06,254.83Z"/><path class="cls-4" d="M346.72,278.9c11.41-3.52,21.75-9,26.75-10s26.75,10.74,26.75,10.74,2.62,11-1.83,19.33c-3.84,5.66-22.07,6.43-22.07,6.43a110.77,110.77,0,0,1-22.35-2.5c-3.12-.71-11.12.82-10.7-2.35C344.22,293.28,345.93,285.42,346.72,278.9Z"/><g class="cls-11"><path class="cls-3" d="M396.52,279.59c3-.17,13.75,2.83,16.08,4.42s1.67,20.08,3.67,24.58-34.84,4.66-34.84,4.66l-9.33-18.5S393.52,279.76,396.52,279.59Z"/></g><path class="cls-7" d="M346.72,278.9c11.41-3.52,21.75-9,26.75-10s26.75,10.74,26.75,10.74,2.62,11-1.83,19.33c-3.84,5.66-22.07,6.43-22.07,6.43a110.77,110.77,0,0,1-22.35-2.5c-3.12-.71-11.12.82-10.7-2.35C344.22,293.28,345.93,285.42,346.72,278.9Z"/><path class="cls-4" d="M254.39,219.6c1.17-4.21,16.58-8,16.58-8s8,9.75,8.75,10.5-9.58,6-12.66,5.25S253.56,222.6,254.39,219.6Z"/><path class="cls-4" d="M405.06,275c1.17-4.21,12.66-.09,12.66-.09s6.09,2.3,6.84,3.05-3.75,5.54-6.84,4.79S404.22,278,405.06,275Z"/><path class="cls-4" d="M302.47,289.57c1.17-4.21,18.54-1.89,18.54-1.89s1.05,7.78,0,7.92c-5.54.75-6.33-1.88-9.41-2.63S301.64,292.57,302.47,289.57Z"/><path class="cls-4" d="M216.89,244.85c-3,4.81,12.33,18.29,14.33,18.65s15,1.31,21,0,13.34-11.65,19.67-13-17.67-18-20-19.67S218.56,242.18,216.89,244.85Z"/><g class="cls-12"><path class="cls-3" d="M259.47,233.6s-8.25,12-9.25,17S254.34,267,254.34,267l28.38-16.69Z"/></g><path class="cls-7" d="M216.89,244.85c-3,4.81,12.33,18.29,14.33,18.65s15,1.31,21,0,13.34-11.65,19.67-13-17.67-18-20-19.67S218.56,242.18,216.89,244.85Z"/><path class="cls-4" d="M242.56,254c-3,4.81-7.86,27.48-5.86,27.83s22.86,8.65,28.86,7.33,14-7.66,20.33-9c2.8-.59,6.53-7.5,4.67-11.39-2.35-4.91-11-7-12.27-7.94C276,259.18,244.22,251.35,242.56,254Z"/><g class="cls-13"><path class="cls-3" d="M275.33,255s-8.25,12-9.25,17-1.38,19.62-1.38,19.62l33.88-19.93Z"/></g><path class="cls-7" d="M242.56,254c-3,4.81-7.86,27.48-5.86,27.83s22.86,8.65,28.86,7.33,14-7.66,20.33-9c2.8-.59,6.53-7.5,4.67-11.39-2.35-4.91-11-7-12.27-7.94C276,259.18,244.22,251.35,242.56,254Z"/><path class="cls-4" d="M270,278.35c-3,4.82-7.86,27.48-5.86,27.84s24.36,2,30.36.66,13.5,1.84,19.84.5c2.8-.59-2-7.72-3.84-11.62-2.34-4.9-3.46-9.62-4.76-10.54C303.37,283.52,271.64,275.69,270,278.35Z"/><g class="cls-14"><path class="cls-3" d="M302.74,279.29s-8.25,12-9.25,17-1.37,19.61-1.37,19.61L326,296Z"/></g><path class="cls-7" d="M270,278.35c-3,4.82-7.86,27.48-5.86,27.84s24.36,2,30.36.66,13.5,1.84,19.84.5c2.8-.59-2-7.72-3.84-11.62-2.34-4.9-3.46-9.62-4.76-10.54C303.37,283.52,271.64,275.69,270,278.35Z"/><circle class="cls-2" cx="279.76" cy="249.33" r="3.5"/><circle class="cls-2" cx="272.95" cy="227.42" r="3.5"/><circle class="cls-2" cx="215.5" cy="229.31" r="6.17"/><circle class="cls-2" cx="267.05" cy="228.94" r="6.17"/><circle class="cls-2" cx="281.83" cy="224.58" r="4.73"/><circle class="cls-2" cx="258.74" cy="231.54" r="2.23"/><circle class="cls-2" cx="267.62" cy="233.25" r="3.01"/><circle class="cls-2" cx="207.39" cy="232.85" r="4.36"/><circle class="cls-2" cx="200.33" cy="238.38" r="3.01"/><circle class="cls-2" cx="226.33" cy="223.92" r="3.01"/><circle class="cls-2" cx="195.9" cy="237.72" r="2.13"/><circle class="cls-2" cx="420.28" cy="282.42" r="4.36"/><circle class="cls-2" cx="423.22" cy="293.52" r="4.36"/><circle class="cls-2" cx="430.24" cy="287.82" r="7.02"/><circle class="cls-2" cx="413.22" cy="287.95" r="3.01"/><circle class="cls-2" cx="408.79" cy="287.29" r="2.13"/><circle class="cls-2" cx="402.4" cy="298.6" r="1.41"/><circle class="cls-2" cx="205.08" cy="268.79" r="2.13"/><circle class="cls-2" cx="101.37" cy="208.29" r="2.13"/><circle class="cls-2" cx="243.08" cy="221.49" r="1.65"/><circle class="cls-2" cx="257.09" cy="223.92" r="1.65"/><circle class="cls-2" cx="292.67" cy="220.91" r="1.65"/><circle class="cls-2" cx="185.97" cy="232.85" r="4.36"/><circle class="cls-2" cx="330.5" cy="288.25" r="3.74"/><circle class="cls-2" cx="252.76" cy="287.95" r="3.74"/><circle class="cls-2" cx="342.75" cy="301.61" r="3.74"/><circle class="cls-2" cx="338.67" cy="299.73" r="1.87"/><circle class="cls-2" cx="340.54" cy="293.52" r="1.32"/><circle class="cls-2" cx="335.43" cy="287.68" r="2.56"/><circle class="cls-2" cx="347.43" cy="302.79" r="2.56"/><path class="cls-2" d="M201.06,251.66a3.79,3.79,0,0,1,2.28-1.31c1.38-.17,3.87,3.67,3.87,3.67l-2.13,2-3-2.54Z"/><path class="cls-2" d="M321.88,230.82a17.16,17.16,0,0,1,3.78,0,24.67,24.67,0,0,1,.41,2.84,12.46,12.46,0,0,1-.91,2.83s-3.23.75-3.28,0a15.09,15.09,0,0,1,.78-3.21Z"/><polygon class="cls-2" points="324.47 235.47 325.85 235.11 327.22 236.27 325.85 237.2 324.47 235.47"/><polygon class="cls-2" points="275.51 239.29 277.37 237.88 278.97 239.29 277.85 240.64 275.51 239.29"/><path class="cls-2" d="M330.5,258.16l3.74-1a50.4,50.4,0,0,1,3.75,4.41c.4.82-1.86,3-2.56,3.07s-2.31-3.21-3.71-3.74S330.5,258.16,330.5,258.16Z"/><path class="cls-2" d="M246.31,258l1.73,3.47s-3,3.09-3.74,3.64-3.15-.37-3.37-1,1.19-1.82,1.44-3.29S246.31,258,246.31,258Z"/><path class="cls-2" d="M381.55,263.49l3.75-1a48.86,48.86,0,0,1,3.74,4.41c.41.82-1.85,3-2.56,3.07s-2.3-3.21-3.7-3.74S381.55,263.49,381.55,263.49Z"/><path class="cls-2" d="M383.25,261.8l3.39,2.58a47.52,47.52,0,0,1-4.19,4c-.8.45-3.09-1.69-3.21-2.38s1.86-1.06,2.31-2.48A2.48,2.48,0,0,1,383.25,261.8Z"/><polygon class="cls-2" points="332.87 269.24 334.26 271.4 331.72 274.02 330.5 271.99 332.87 269.24"/><path class="cls-3" d="M286.18,240.22a3.44,3.44,0,0,1,.79-.93l.17,1.52.17.67-.75-.67Z"/><path class="cls-3" d="M295,256.43l1.85-.42a11.63,11.63,0,0,1,1.49,2c.41.84-1.49.39-1.49.39Z"/><polygon class="cls-3" points="288.56 262.45 290.31 262.45 291.02 263.85 288.56 262.45"/><polygon class="cls-3" points="333.21 243.35 335.43 244.71 334.24 247.44 333.21 243.35"/><path class="cls-3" d="M345.56,254c1.5-.67,1.87,1,1.87,1Z"/><path class="cls-3" d="M366.2,279.18c1.52.82,0,4,0,4s-3.77-.33-3.5-.33A42.05,42.05,0,0,0,366.2,279.18Z"/><polygon class="cls-3" points="378.84 277.67 379.24 279.85 377.39 279.18 378.84 277.67"/><path class="cls-3" d="M357.45,294.84s5.2,1.91,5.24,3-2.62-.7-2.62-.7Z"/><path class="cls-3" d="M275.51,285.7c-1.45,1.15-.95,4.54-.95,4.54s1.8-1.6,2.81-1.08S279,288,279,288Z"/><polygon class="cls-3" points="253.56 271.63 256.51 273.08 256.51 274.74 253.56 271.63"/><path class="cls-3" d="M234.56,248.16c-.67.86,0,2.18,0,2.18h3.16Z"/><path class="cls-15" d="M91.72,211.6c-4.66-2.58-7.66-5.42-5.33-7.25s6.37-3.33,12.85-3.17"/><path class="cls-15" d="M176.72,242.35c-5.5-4-26-11.34-25.75-16.42s10-7.49,15.5-7.66,10.75,2.46,17.25,1.64,14.21.76,19.23-1.65.74-7.16,6.38-9.91,12.89-5,18.14-4.5"/><path class="cls-15" d="M175.1,235.11c-2.38-1.39-14.13-5.48-13.5-8.18s4.87-2.93,8.37-3a76.92,76.92,0,0,1,9.88.93"/><path class="cls-15" d="M221,209.72c2.5-1.25,10.89.13,15.26-.87s15.27-4.27,22.51-5.07,26.11,4.57,26.11,4.57"/><path class="cls-15" d="M213.6,275.47c4.12,2.63,8.37,8.82,11.62,11.6s15.69,5.68,15.69,5.68"/><path class="cls-15" d="M204.13,275.47c3,3.25,14.47,14.31,14.47,14.31"/><path class="cls-16" d="M458.89,291c-14.95,13.43-48.48,21.74-97,21.74-97.11,0-217.58-33.23-269.07-74.22-11.16-8.89-11.74-11-14.88-18.89"/><path class="cls-15" d="M311.31,219.27c5.66.33,13.7-.54,19.18,1.64s13.12,4.66,13.12,4.66"/><path class="cls-15" d="M413.22,260.86c4.75,3.49,11.42,12.32,11.42,12.32"/><ellipse class="cls-2" cx="308.46" cy="15.46" rx="70.27" ry="13.47"/><g class="cls-17"><ellipse class="cls-4" cx="308.46" cy="30.91" rx="70.27" ry="13.47"/></g></g></g></g></svg>