<svg xmlns="http://www.w3.org/2000/svg" xmlns:xlink="http://www.w3.org/1999/xlink" viewBox="0 0 836.27 443.28"><defs><style>.cls-1{fill:none;}.cls-2{isolation:isolate;}.cls-3{clip-path:url(#clip-path);}.cls-4{fill:#0041fa;}.cls-5{fill:#fa0064;}.cls-6{clip-path:url(#clip-path-2);}.cls-7{fill:#fff;}.cls-8{clip-path:url(#clip-path-3);}.cls-9{clip-path:url(#clip-path-4);}</style><clipPath id="clip-path" transform="translate(-2.99)"><polygon class="cls-1" points="501.19 324.13 568.67 120.61 839.86 252.1 772.38 455.62 501.19 324.13"/></clipPath><clipPath id="clip-path-2" transform="translate(-2.99)"><path class="cls-1" d="M782.28,420.17c-40.68-29.55-103.53-60.36-139-77.56s-89.78-39-129-51.91C524.09,260.18,557,162,569.79,123.28c51.08,32.36,87.74,52.1,123.22,69.3S784.34,236,837.65,253.15c-10.69,32.26-45.7,137.36-55.37,167"/></clipPath><clipPath id="clip-path-3" transform="translate(-2.99)"><polygon class="cls-1" points="0 358.53 44.86 223.22 111.31 255.44 66.45 390.74 0 358.53"/></clipPath><clipPath id="clip-path-4" transform="translate(-2.99)"><polyline class="cls-1" points="70.45 373.92 10.55 344.88 44 243.98 103.9 273.02 70.45 373.92"/></clipPath></defs><title>korea-samsung-foreground (2)</title><g id="Layer_2" data-name="Layer 2"><g id="samsung-KOREA"><g id="korea-samsung-foreground"><g class="cls-2"><g class="cls-3"><path class="cls-4" d="M642.66,344.45c-1.45-.71-2.94-1.42-4.45-2.14-8.38,19.34-50.11-.46-62.44-3.77-12.59-3.37-47-11.6-49.87-4.44-.47,1.19.11,2.07,1.79,2.88,8.4,4.08,44.26,6.65,113.32,40.14s96.48,61.58,104.88,65.65c1.68.82,2.6.67,2.94-.59,2-7.54-27.57-30.36-38.6-38.45-10.79-7.9-52.23-28.42-47.31-49.38-7.38-3.65-14.22-7-20.26-9.9" transform="translate(-2.99)"/><path class="cls-5" d="M712.21,203.91c-7.12-3.37-13.76-6.56-19.8-9.49l-1.35-.66-87.61,128.8c7.48,3.17,14.73,6.34,21.62,9.44l87.14-128.09m123.14,50.55c-23.27-7.6-46.94-16.84-69.16-26.26L678.14,357.64c10.6,5.34,21.91,11.16,33.35,17.31,24.55,13.19,49.72,27.82,69.89,42.27,3.36-10.27,9-27.46,15.57-47.15,13.6-41,30.86-92.88,38.4-115.61M570.72,126.1c-8.78,26.45-25.7,77.07-38.94,117-6.36,19.17-11.87,35.9-15.22,46.28,17.1,5.68,36.89,13,56.67,20.79l89-130.9c-26.47-13.82-55.41-30.34-91.55-53.18" transform="translate(-2.99)"/><g class="cls-6"><path class="cls-4" d="M662.27,179.28l-89,130.9c10.19,4,20.39,8.21,30.22,12.38l87.61-128.8c-9.42-4.58-18.93-9.34-28.79-14.48" transform="translate(-2.99)"/><path class="cls-4" d="M766.19,228.2c-19.56-8.3-38-16.73-54-24.29L625.07,332c6.67,3,13,6,18.81,8.78,9.7,4.7,21.46,10.42,34.26,16.86L766.19,228.2" transform="translate(-2.99)"/></g><path d="M516.56,289.39c3.35-10.38,8.86-27.11,15.22-46.28,13.24-39.94,30.16-90.56,38.94-117,36.14,22.84,65.08,39.36,91.55,53.18,9.86,5.14,19.37,9.9,28.79,14.48l1.35.66c6,2.93,12.68,6.12,19.8,9.49,16,7.56,34.42,16,54,24.29,22.22,9.42,45.89,18.66,69.16,26.26-7.54,22.73-24.8,74.6-38.4,115.61-6.53,19.69-12.21,36.88-15.57,47.15C761.21,402.77,736,388.14,711.49,375c-11.44-6.15-22.75-12-33.35-17.31-12.8-6.44-24.56-12.16-34.26-16.86C638.06,338,631.74,335,625.07,332c-6.89-3.1-14.14-6.27-21.62-9.44-9.83-4.17-20-8.34-30.22-12.38-19.78-7.82-39.57-15.11-56.67-20.79m54-167.86-2.38,1c-8.56,25.8-26,78.05-39.61,119.05-6.8,20.51-12.63,38.2-15.91,48.38l1.21,2.68c37.51,12.34,89,32.91,124.34,49.7,1.51.72,3,1.43,4.45,2.14,6,2.93,12.88,6.25,20.26,9.9,14.28,7,30.62,15.3,47.23,24.22,25.2,13.52,51,28.59,71.25,43.28l2.48-.91-1.6-.77,1.6.77c3.23-9.88,9.27-28.15,16.29-49.31,14-42.31,32-96.19,39.09-117.71l-1.21-2.69c-53.18-17.16-109-43.3-144.43-60.48s-72-36.88-123.06-69.22" transform="translate(-2.99)"/></g></g><g class="cls-2"><path class="cls-4" d="M247.84,131.67l-10.79-16.33.44,0,10.79,16.32Z" transform="translate(-2.99)"/><path class="cls-7" d="M304.77,50l10.78,16.32c-.21-.33-.71-.4-1.51-.41L303.26,49.56C304.05,49.56,304.55,49.64,304.77,50Z" transform="translate(-2.99)"/><path class="cls-7" d="M271.13,151.11l-10.78-16.32a1.51,1.51,0,0,1,0-1.2c2.79-9.9,5.49-19.8,8.22-29.7q6.24-22.65,12.48-45.3c.12-.43.16-.85.24-1.28l10.78,16.33a11.72,11.72,0,0,1-.23,1.27q-6.24,22.65-12.49,45.3c-2.73,9.9-5.43,19.8-8.21,29.7C271,150.49,271,150.87,271.13,151.11Z" transform="translate(-2.99)"/><path class="cls-7" d="M248.28,131.71l-10.79-16.32q15.06-32.92,30.19-66l10.78,16.32Q263.3,98.86,248.28,131.71Z" transform="translate(-2.99)"/><path class="cls-7" d="M278.46,65.74,267.68,49.42h1.85l16.86.08q8.43,0,16.87.05L314,65.88q-8.43,0-16.87,0l-16.85-.08Z" transform="translate(-2.99)"/><path class="cls-7" d="M231.06,150.93l-10.79-16.32a1.39,1.39,0,0,1-.12-.89q2.19-25.74,4.29-51.48c.67-8.15,1.37-16.32,2-24.48a.57.57,0,0,0-.09-.42l10.78,16.32a.63.63,0,0,1,.1.42q-1,12.26-2.05,24.48-2.13,25.74-4.29,51.48A1.45,1.45,0,0,0,231.06,150.93Z" transform="translate(-2.99)"/><path class="cls-7" d="M191.54,151l-10.78-16.32c.83-3,1.6-5.83,2.47-8.71q5.46-18,11-36,6.06-19.8,12.13-39.58c.26-.86.58-1.26,1.62-1.26q17.89.14,35.81.21a2.47,2.47,0,0,1,.49.14l10.79,16.32a2.92,2.92,0,0,0-.49-.14q-17.92-.09-35.82-.2c-1,0-1.35.39-1.61,1.25q-6,19.78-12.13,39.58-5.52,18-11,36C193.15,145.14,192.38,148,191.54,151Z" transform="translate(-2.99)"/><path class="cls-4" d="M314,65.88c1.41,0,1.89.25,1.51,1.69-3.51,13.26-6.92,26.51-10.35,39.75q-5.43,21-10.84,42c-.17.69-.38,1.38-.61,2.17-.68,0-1.22.08-1.74.08H289l-3.05,0c-4.48,0-8.95,0-13.43,0-1.3,0-1.68-.29-1.32-1.58,2.78-9.9,5.48-19.8,8.21-29.7q6.25-22.65,12.49-45.3a11.72,11.72,0,0,0,.23-1.27l-.36,0L279.06,99.85Q266.88,125,254.72,150.2a1.8,1.8,0,0,1-1.9,1.19c-3.29,0-6.54-.06-9.79-.07-3.64,0-7.27,0-10.91,0-1,0-1.26-.33-1.19-1.25q2.19-25.74,4.29-51.48,1-12.23,2.05-24.48a.68.68,0,0,0-.4-.69l-22.62,77.69L191.54,151c.84-2.95,1.61-5.83,2.48-8.7q5.46-18,11-36,6.06-19.8,12.13-39.58c.26-.86.58-1.26,1.61-1.25q17.89.12,35.82.2a2.92,2.92,0,0,1,.49.14q-3.6,32.85-7.21,65.88l.44,0q15.06-32.93,30.18-66h1.86l16.85.08Q305.6,65.88,314,65.88Z" transform="translate(-2.99)"/></g><g class="cls-2"><path class="cls-7" d="M557.58,84.94l-20.9,18.87.06,0c2.06-1.93,1.41-5.9-1.68-10.07-.54-.73-1.12-1.45-1.7-2.17L483.17,28.38l-1.54-1.94,20.9-18.87,1.54,1.93,50.19,63.14c.58.73,1.16,1.44,1.7,2.18,3.09,4.16,3.74,8.14,1.68,10.06Z" transform="translate(-2.99)"/><path class="cls-7" d="M572.79,98.94l-20.9,18.88a18.35,18.35,0,0,1-3.36,2.41A24,24,0,0,1,538,123.12c-8.6.51-18.09-5.12-26.71-15.83C500.1,93.4,489.07,79.42,478,65.48L459.2,41.86,457.7,40,478.6,21.1,480.1,23,498.87,46.6C510,60.55,521,74.53,532.18,88.42c8.62,10.71,18.11,16.33,26.71,15.82a24,24,0,0,0,10.54-2.88A18.89,18.89,0,0,0,572.79,98.94Z" transform="translate(-2.99)"/><path class="cls-4" d="M492,13.51l1.41,1.78L544,78.89a35.46,35.46,0,0,0,3.42,3.8c3.47,3.18,7,4.18,9.4,2.82a4.56,4.56,0,0,0,.85-.63C559.7,83,559.05,79,556,74.82c-.54-.74-1.12-1.45-1.7-2.18L504.07,9.5l-1.54-1.93L515.89,0c.52.62,1,1.2,1.5,1.79Q542.5,33.35,567.57,65a83.21,83.21,0,0,1,5.81,8.24c5.46,8.9,6.25,15.85,3.31,20.89a19.37,19.37,0,0,1-7.26,7.28,24,24,0,0,1-10.54,2.88c-8.6.51-18.09-5.11-26.71-15.82C521,74.53,510,60.55,498.87,46.6L480.1,23l-1.5-1.88Z" transform="translate(-2.99)"/></g><g class="cls-2"><path class="cls-7" d="M414.84,164.8l-10.89,20-18.15-3.2,10.88-20.05Z" transform="translate(-2.99)"/><path class="cls-7" d="M369.85,173.19l10.89-20a2,2,0,0,1,1.47-1,9.12,9.12,0,0,1,3.25,0c3.79.67,7.91,3.3,9.68,6.54.51.93,1,1.86,1.54,2.84L385.8,181.65c-.53-1-1-1.92-1.54-2.85-1.77-3.23-5.89-5.86-9.68-6.53a9.12,9.12,0,0,0-3.25,0A2,2,0,0,0,369.85,173.19Z" transform="translate(-2.99)"/><path class="cls-7" d="M412.27,190.25,401.38,210.3a1.55,1.55,0,0,0,.18-.63c.15-1.84-.71-4-3.74-6.23a41,41,0,0,0-6-3.78c-5.1-2.6-10.28-5-15.4-7.53-3.78-1.89-7.57-3.85-11.25-5.94-6.49-3.69-10.85-7.91-13-12.42a19.07,19.07,0,0,1-1.7-4.81,5.14,5.14,0,0,1,.42-3.36l10.89-20a5.15,5.15,0,0,0-.43,3.36,19.13,19.13,0,0,0,1.7,4.82c2.16,4.5,6.52,8.72,13,12.41,3.69,2.09,7.47,4.05,11.26,5.94,5.11,2.56,10.29,4.94,15.39,7.53a42.2,42.2,0,0,1,6,3.78c3,2.27,3.89,4.39,3.74,6.23A1.72,1.72,0,0,1,412.27,190.25Z" transform="translate(-2.99)"/><path class="cls-7" d="M431.31,198.18l-10.88,20c-.9,1.65-2.91,2.62-5.93,2.93A49.84,49.84,0,0,1,401,220.5,83,83,0,0,1,385.55,216c-9.05-3.51-15.27-8.61-18.89-14.71-1-1.64-1.78-3.25-2.71-5l10.88-20c.93,1.72,1.74,3.33,2.71,5,3.62,6.1,9.84,11.2,18.89,14.71a82.12,82.12,0,0,0,15.47,4.46,49.35,49.35,0,0,0,13.48.66C428.4,200.81,430.42,199.84,431.31,198.18Z" transform="translate(-2.99)"/><path class="cls-4" d="M381,143.36a83.76,83.76,0,0,1,13.77,3.76c8.54,3.09,14.52,7.73,17.82,13.52.78,1.38,1.48,2.74,2.26,4.16l-18.16-3.2c-.53-1-1-1.91-1.54-2.84-1.77-3.24-5.89-5.87-9.68-6.54a9.12,9.12,0,0,0-3.25,0c-2.9.55-2,4.29,2,7.07a44.77,44.77,0,0,0,6.15,3.63c4.95,2.44,10,4.67,14.9,7.12,3.78,1.87,7.58,3.84,11.24,6,5.07,2.93,9,6.28,11.34,10a27.79,27.79,0,0,1,3.87,8.28c.89,4.11-1.37,6.37-6.28,6.86a49.35,49.35,0,0,1-13.48-.66A82.12,82.12,0,0,1,396.43,196c-9.05-3.51-15.27-8.61-18.89-14.71-1-1.64-1.78-3.25-2.71-5l19.45,3.43c.15.22.36.5.51.76.68,1.26,1.4,2.52,2,3.76,1.78,3.59,6,5.89,10.4,6.67l.44.07c2.54.39,4.66.29,4.79-1.38.15-1.84-.71-4-3.74-6.23a42.2,42.2,0,0,0-6-3.78c-5.1-2.59-10.28-5-15.39-7.53-3.79-1.89-7.57-3.85-11.26-5.94-6.49-3.69-10.85-7.91-13-12.41a19.13,19.13,0,0,1-1.7-4.82c-.65-4,2-6,7-6.33A51.9,51.9,0,0,1,381,143.36Z" transform="translate(-2.99)"/></g><g class="cls-2"><g class="cls-8"><path class="cls-4" d="M61.78,384.94h-.22l-.22,0,.44,0M53.64,228.82l-.41,0h.19l.22,0" transform="translate(-2.99)"/><path class="cls-4" d="M61.56,384.94h-.19L61,385l.39,0,.22,0m-8.14-156.1h-.19l-.39,0h.38l.2,0" transform="translate(-2.99)"/><path class="cls-4" d="M61.37,384.94h-.22c-.21,0-.43.06-.65.07l.45,0,.42,0M53.22,228.87h-.38l-.43,0H53l.21,0" transform="translate(-2.99)"/><path class="cls-4" d="M61.15,384.93h-.23c-.31.05-.62.08-.93.1l.51,0c.22,0,.44,0,.65-.07M53,228.89h-.87c.23,0,.47,0,.71,0l.16,0" transform="translate(-2.99)"/><path class="cls-4" d="M60.92,384.92l-.2,0a6.67,6.67,0,0,1-1,.13H60c.31,0,.62,0,.93-.1m-8.07-156c-.24,0-.48,0-.71,0a5.07,5.07,0,0,0-.55,0,9.21,9.21,0,0,1,1,0l.21,0" transform="translate(-2.99)"/><path class="cls-4" d="M60.72,384.9l-.21,0a7.89,7.89,0,0,1-1.2.18l.41,0a6.67,6.67,0,0,0,1-.13M52.64,229a9.21,9.21,0,0,0-1,0l-.41,0a8.71,8.71,0,0,1,1.25.05l.21,0" transform="translate(-2.99)"/><path class="cls-4" d="M60.51,384.88l-.2,0a9.41,9.41,0,0,1-1.41.22l.41,0a7.89,7.89,0,0,0,1.2-.18M52.43,229a8.71,8.71,0,0,0-1.25-.05l-.37,0a8.52,8.52,0,0,1,1.42.08l.2-.05" transform="translate(-2.99)"/><path class="cls-4" d="M60.31,384.86l-.2,0a9.16,9.16,0,0,1-1.65.27l.44,0a9.41,9.41,0,0,0,1.41-.22M52.23,229.05a8.52,8.52,0,0,0-1.42-.08l-.46,0a8.58,8.58,0,0,1,1.67.11l.21,0" transform="translate(-2.99)"/><path class="cls-4" d="M60.11,384.83l-.21,0a9.26,9.26,0,0,1-1.82.33l.38,0a9.16,9.16,0,0,0,1.65-.27M52,229.1a8.58,8.58,0,0,0-1.67-.11L50,229a8.17,8.17,0,0,1,1.84.15l.21-.06" transform="translate(-2.99)"/><path class="cls-4" d="M59.9,384.79l-.22,0a9.08,9.08,0,0,1-2.2.4l.6,0a9.26,9.26,0,0,0,1.82-.33M51.81,229.16A8.17,8.17,0,0,0,50,229h-.29a9.34,9.34,0,0,1,2,.19l.18-.05" transform="translate(-2.99)"/><path class="cls-4" d="M51.63,229.21a9.34,9.34,0,0,0-2-.19c-4,0-7.67,2.79-9.16,7.31L3.66,347.5c-2,6.06.68,13.13,6,15.7l43.36,21a9.2,9.2,0,0,0,4.49.93,9.08,9.08,0,0,0,2.2-.4,10,10,0,0,1-2.17-.75L14.15,363c-5.3-2.58-8-9.64-6-15.7L45,236.1a10.44,10.44,0,0,1,6.6-6.89" transform="translate(-2.99)"/><path class="cls-5" d="M20.47,356.87l-3.6-1.74-.73,2.2,3.6,1.74.73-2.2M47.77,368l-14.72-7.14a1.6,1.6,0,0,0-2.22,1.06l-.47,1.4a2.21,2.21,0,0,0,1,2.63L46.09,373A1.6,1.6,0,0,0,48.31,372l.46-1.39a2.19,2.19,0,0,0-1-2.63M15.59,357.59l1-3.11L21,356.61l-1,3.11-4.39-2.13m42.14,18.06-.85-1.24,1.32-.19-.16.48,1.88.91a1.65,1.65,0,0,1,.74,2,1.19,1.19,0,0,1-1.65.78L56.16,377l.15-.45,2.85,1.38a.8.8,0,0,0,1.1-.53,1.09,1.09,0,0,0-.49-1.3l-1.88-.91-.16.49m-39.91-21,.16-.45,4.19,2-1,2.88-.41-.2.81-2.42-3.8-1.84m13.31,12a3,3,0,0,1-1.37-3.6l.47-1.4a2.2,2.2,0,0,1,3.05-1.46L48,367.26a3,3,0,0,1,1.37,3.61l-.46,1.39a2.19,2.19,0,0,1-3,1.46l-14.73-7.14m69.45-95.17L103.9,273l-5.27,15.91L86.8,324.62l-16.35,49.3-59.9-29L44,244l40,19.39,16.59,8M79.11,256.5l.06,0a.28.28,0,0,0,.36-.19l0-.09.88-2.64,0-.08.81.39V254l-.88,2.64a1.87,1.87,0,0,1-.15.32.72.72,0,0,1-.77.39,2.21,2.21,0,0,1-.57-.17,2.44,2.44,0,0,1-.51-.35,1.1,1.1,0,0,1-.3-1.18l.59-1.76.32-1,0-.07.81.39,0,.07L78.92,256l0,.17a.38.38,0,0,0,.22.38m-11.2-4.79-.8-.4,0,0c.6-1.13,1.21-2.25,1.81-3.39l.06,0,1.31.63,0,.11c-.2,1.27-.4,2.55-.6,3.81l0,.09,0,0-.76-.36-.05-.09.28-1.45c.12-.61.23-1.22.35-1.83l0-.26-.1.2c-.43.86-.84,1.71-1.27,2.56l-.16.36-.07,0m4.51,1.2h0l1.34-2.65.07,0,1.18.57,0,.11c-.18.57-.36,1.15-.53,1.73L74,254.53l0,.1-.06,0-.69-.33,0-.1c.13-.43.28-.86.42-1.28.21-.65.41-1.31.63-2v-.06h0l-.56,1c-.35.66-.71,1.34-1.07,2l-.07,0-.36-.18-.36-.17,0-.09c.12-.79.25-1.59.37-2.39L72.3,250v0l-1.13,3.34-.8-.39.13-.37L71,251l.6-1.69.06,0,1.26.61v0l-.54,3m10.75,5.31.12-.38c.16-.5.31-1,.47-1.48.1-.33.21-.66.31-1,0-.1,0-.1.11-.06l.65.31.06,0-1.21,3.65-.06,0-1-.5,0-.09c.06-1.1.12-2.2.19-3.29v0c-.23.7-.45,1.41-.67,2.11-.09.27-.17.55-.26.82l-.06.05L81,258l0,0,1.2-3.64.06,0,1.08.52.05.1-.21,3.16v.07m-7.08-3.16h0a.26.26,0,0,0,.32,0,.49.49,0,0,0,.12-.44.74.74,0,0,0-.12-.29c-.14-.22-.29-.42-.43-.63s-.19-.32-.28-.5a1.07,1.07,0,0,1,0-.91,1.59,1.59,0,0,1,.16-.32.71.71,0,0,1,.69-.34,2.28,2.28,0,0,1,.63.18,1.92,1.92,0,0,1,.53.38.94.94,0,0,1,.24,1l-.09.29-.79-.39.07-.19a.4.4,0,0,0-.18-.51.33.33,0,0,0-.17,0,.37.37,0,0,0-.26.47,1.11,1.11,0,0,0,.14.29c.13.21.28.4.41.6a3.5,3.5,0,0,1,.29.49,1,1,0,0,1,.08.75,1.88,1.88,0,0,1-.22.57.7.7,0,0,1-.68.36,1.7,1.7,0,0,1-.67-.17,2,2,0,0,1-.59-.44,1.11,1.11,0,0,1-.24-1.12l.11-.34.85.41v.05l-.09.26a.41.41,0,0,0,.21.53m9.55,5.33a1.94,1.94,0,0,1-.58-.43,1.09,1.09,0,0,1-.24-1,3.57,3.57,0,0,1,.1-.35c.15-.48.31-.94.47-1.41a2.43,2.43,0,0,1,.18-.4.72.72,0,0,1,.72-.4,2,2,0,0,1,.65.17,2.13,2.13,0,0,1,.55.41,1.11,1.11,0,0,1,.25,1.1c0,.1-.07.2-.1.31l-.81-.39a2.58,2.58,0,0,0,.08-.26.4.4,0,0,0-.18-.5h0a.3.3,0,0,0-.44.17l-.05.12-.56,1.67,0,.13a.36.36,0,0,0,.09.34.53.53,0,0,0,.14.12.45.45,0,0,0,.2,0,.24.24,0,0,0,.22-.15c.09-.22.15-.45.23-.68l-.31-.15.17-.53,1.13.54,0,.07c-.1.32-.2.63-.31.94a1.56,1.56,0,0,1-.2.41.66.66,0,0,1-.68.34,1.73,1.73,0,0,1-.64-.17M65.57,250l0,0a.26.26,0,0,0,.32-.05.49.49,0,0,0,.12-.45,2,2,0,0,0-.15-.33l-.32-.47c-.13-.2-.26-.39-.37-.6a1.24,1.24,0,0,1,.25-1.42.7.7,0,0,1,.58-.18,2.31,2.31,0,0,1,.62.18,2.16,2.16,0,0,1,.51.36,1,1,0,0,1,.25,1.09l-.08.26-.8-.38v-.06l0-.15a.38.38,0,0,0-.17-.5.27.27,0,0,0-.16,0c-.2,0-.34.25-.27.49a1.17,1.17,0,0,0,.17.31c.13.21.28.41.42.61a3.83,3.83,0,0,1,.25.44,1,1,0,0,1,.07.82,2.38,2.38,0,0,1-.19.49.73.73,0,0,1-.74.4,1.73,1.73,0,0,1-.64-.17,1.94,1.94,0,0,1-.58-.43,1.12,1.12,0,0,1-.25-1.16c0-.12.07-.22.11-.34l0,0,.5.25.26.12,0,.1-.09.25a.39.39,0,0,0,.2.52m2.5-5.91a1.32,1.32,0,0,1-.61-1.57l.24-.71a1,1,0,0,1,1.33-.63l18.39,8.91a1.32,1.32,0,0,1,.6,1.57l-.24.71a1,1,0,0,1-1.32.63l-18.39-8.91m33.61,6.71-43.36-21a9.24,9.24,0,0,0-4.68-.92l-.22,0-.2,0-.21,0-.16,0-.21,0-.21,0-.2.05-.21,0-.21.06-.18.05A10.44,10.44,0,0,0,45,236.1L8.17,347.28c-2,6.06.68,13.12,6,15.7l43.36,21a10,10,0,0,0,2.17.75l.22,0,.21,0,.2,0,.2,0,.21,0,.2,0h.86c3.91-.12,7.54-2.84,9-7.3l36.86-111.17c2-6.07-.67-13.14-6-15.7" transform="translate(-2.99)"/><polyline points="100.92 273.02 97.6 271.41 20.16 306.86 26.27 288.43 81.01 263.37 41.01 243.98 7.56 344.88 67.46 373.92 83.81 324.62 23.1 352.42 7.56 344.88 13.66 326.48 95.64 288.94 100.92 273.02"/><g class="cls-9"><polyline class="cls-4" points="97.6 271.41 81.01 263.37 26.27 288.43 20.16 306.86 97.6 271.41"/><polyline class="cls-4" points="95.64 288.94 13.66 326.48 7.56 344.88 23.1 352.42 83.81 324.62 95.64 288.94"/></g><path d="M87.42,250.06,69,241.15a1,1,0,0,0-1.33.63l-.24.71a1.32,1.32,0,0,0,.61,1.57L86.46,253a1,1,0,0,0,1.32-.63l.24-.71a1.32,1.32,0,0,0-.6-1.57" transform="translate(-2.99)"/><path class="cls-7" d="M31.36,365.9a2.21,2.21,0,0,1-1-2.63l.47-1.4a1.6,1.6,0,0,1,2.22-1.06L47.77,368a2.19,2.19,0,0,1,1,2.63L48.31,372A1.6,1.6,0,0,1,46.09,373L31.36,365.9M48,367.26l-14.72-7.14a2.2,2.2,0,0,0-3.05,1.46l-.47,1.4a3,3,0,0,0,1.37,3.6l14.73,7.14a2.19,2.19,0,0,0,3-1.46l.46-1.39A3,3,0,0,0,48,367.26" transform="translate(-2.99)"/><path class="cls-7" d="M75,250.87l-1.18-.57-.07,0-1.34,2.65h0l.54-3v0l-1.26-.61-.06,0L71,251l-.54,1.54-.13.37.8.39,1.13-3.34v0l-.18,1.13c-.12.8-.25,1.6-.37,2.39l0,.09.36.17.36.18.07,0c.36-.66.72-1.34,1.07-2l.56-1h0v.06c-.22.65-.42,1.31-.63,2-.14.42-.29.85-.42,1.28l0,.1.69.33.06,0,0-.1.57-1.82c.17-.58.35-1.16.53-1.73l0-.11" transform="translate(-2.99)"/><path class="cls-7" d="M84.89,255.65l-.06,0-.65-.31c-.09,0-.09,0-.11.06-.1.33-.21.66-.31,1-.16.49-.31,1-.47,1.48l-.12.38v-.07l.21-3.16-.05-.1-1.08-.52-.06,0L81,258l0,0,.72.35.06-.05c.09-.27.17-.55.26-.82.22-.7.44-1.41.67-2.11v0c-.07,1.09-.13,2.19-.19,3.29l0,.09,1,.5.06,0,1.21-3.65" transform="translate(-2.99)"/><path class="cls-7" d="M81.27,253.91l-.81-.39,0,.08-.88,2.64,0,.09a.28.28,0,0,1-.36.19l-.06,0a.38.38,0,0,1-.22-.38l0-.17.88-2.67,0-.07-.81-.39,0,.07-.32,1-.59,1.76a1.1,1.1,0,0,0,.3,1.18,2.44,2.44,0,0,0,.51.35,2.21,2.21,0,0,0,.57.17.72.72,0,0,0,.77-.39,1.87,1.87,0,0,0,.15-.32l.88-2.64v-.08" transform="translate(-2.99)"/><path class="cls-7" d="M86.94,256.52a2,2,0,0,0-.65-.17.72.72,0,0,0-.72.4,2.43,2.43,0,0,0-.18.4c-.16.47-.32.93-.47,1.41a3.57,3.57,0,0,0-.1.35,1.09,1.09,0,0,0,.24,1,1.94,1.94,0,0,0,.58.43,1.73,1.73,0,0,0,.64.17.66.66,0,0,0,.68-.34,1.56,1.56,0,0,0,.2-.41c.11-.31.21-.62.31-.94l0-.07-1.13-.54-.17.53.31.15c-.08.23-.14.46-.23.68a.24.24,0,0,1-.22.15.45.45,0,0,1-.2,0,.53.53,0,0,1-.14-.12.36.36,0,0,1-.09-.34l0-.13.56-1.67.05-.12a.3.3,0,0,1,.44-.17h0a.4.4,0,0,1,.18.5,2.58,2.58,0,0,1-.08.26l.81.39c0-.11.07-.21.1-.31a1.11,1.11,0,0,0-.25-1.1,2.13,2.13,0,0,0-.55-.41" transform="translate(-2.99)"/><path class="cls-7" d="M66.66,246.67a2.31,2.31,0,0,0-.62-.18.7.7,0,0,0-.58.18,1.24,1.24,0,0,0-.25,1.42c.11.21.24.4.37.6l.32.47a2,2,0,0,1,.15.33.49.49,0,0,1-.12.45.26.26,0,0,1-.32.05l0,0a.39.39,0,0,1-.2-.52l.09-.25,0-.1-.26-.12-.5-.25,0,0c0,.12-.08.22-.11.34a1.12,1.12,0,0,0,.25,1.16,1.94,1.94,0,0,0,.58.43,1.73,1.73,0,0,0,.64.17.73.73,0,0,0,.74-.4,2.38,2.38,0,0,0,.19-.49,1,1,0,0,0-.07-.82,3.83,3.83,0,0,0-.25-.44c-.14-.2-.29-.4-.42-.61a1.17,1.17,0,0,1-.17-.31c-.07-.24.07-.5.27-.49a.27.27,0,0,1,.16,0,.38.38,0,0,1,.17.5l0,.15V248l.8.38.08-.26a1,1,0,0,0-.25-1.09,2.16,2.16,0,0,0-.51-.36" transform="translate(-2.99)"/><path class="cls-7" d="M70.27,248.56,69,247.93l-.06,0c-.6,1.14-1.21,2.26-1.81,3.39l0,0,.8.4.07,0,.16-.36c.43-.85.84-1.7,1.27-2.56l.1-.2,0,.26c-.12.61-.23,1.22-.35,1.83l-.28,1.45.05.09.76.36,0,0,0-.09c.2-1.26.4-2.54.6-3.81l0-.11" transform="translate(-2.99)"/><path class="cls-7" d="M77.15,251.78a2.28,2.28,0,0,0-.63-.18.71.71,0,0,0-.69.34,1.59,1.59,0,0,0-.16.32,1.07,1.07,0,0,0,0,.91c.09.18.19.33.28.5s.29.41.43.63a.74.74,0,0,1,.12.29.49.49,0,0,1-.12.44.26.26,0,0,1-.32,0h0a.41.41,0,0,1-.21-.53l.09-.26v-.05l-.85-.41-.11.34a1.11,1.11,0,0,0,.24,1.12,2,2,0,0,0,.59.44,1.7,1.7,0,0,0,.67.17.7.7,0,0,0,.68-.36,1.88,1.88,0,0,0,.22-.57,1,1,0,0,0-.08-.75,3.5,3.5,0,0,0-.29-.49c-.13-.2-.28-.39-.41-.6a1.11,1.11,0,0,1-.14-.29.37.37,0,0,1,.26-.47.33.33,0,0,1,.17,0,.4.4,0,0,1,.18.51l-.07.19.79.39.09-.29a.94.94,0,0,0-.24-1,1.92,1.92,0,0,0-.53-.38" transform="translate(-2.99)"/><path class="cls-7" d="M59.92,375.61,58,374.7l-.15.46,1.88.91a1.09,1.09,0,0,1,.49,1.3.8.8,0,0,1-1.1.53l-2.85-1.38-.15.45L59,378.35a1.19,1.19,0,0,0,1.65-.78,1.65,1.65,0,0,0-.74-2" transform="translate(-2.99)"/><polyline class="cls-7" points="55.21 374.21 53.89 374.41 54.74 375.65 54.9 375.16 55.05 374.7 55.21 374.21"/><polyline class="cls-7" points="19.18 356.2 14.99 354.17 14.84 354.62 18.63 356.46 17.83 358.88 18.23 359.08 19.18 356.2"/><path class="cls-7" d="M16.14,357.33l.73-2.2,3.6,1.74-.73,2.2-3.6-1.74m4.87-.72-4.39-2.13-1,3.11L20,359.72l1-3.11" transform="translate(-2.99)"/></g></g></g></g></g></svg>