<svg xmlns="http://www.w3.org/2000/svg" viewBox="0 0 359.18 247.1"><defs><style>.cls-1{fill:#ffdc34;}.cls-2{fill:#fa0064;}.cls-3{fill:#0041fa;}</style></defs><title>logo_yellow</title><g id="Layer_2" data-name="Layer 2"><g id="logo"><g id="logo-start-page"><path id="J" class="cls-1" d="M29.39,1V37.24c0,4-.24,9.91-4.64,14.22-3.51,3.51-7.82,4-11.26,4A15.47,15.47,0,0,1,5,53.53a21.73,21.73,0,0,1-5-4.47l7.67-8.62a13,13,0,0,0,1.91,3,4,4,0,0,0,3,1.2,3.78,3.78,0,0,0,2.87-1.12c1.52-1.51,1.6-4.07,1.6-6.31V1Z"/><path id="U" class="cls-1" d="M150.76,32.53c0,5.11-.64,11.42-5.91,16.85-5.11,5.27-11,6.07-16.61,6.07s-11.49-.8-16.6-6.07c-5.28-5.43-5.91-11.74-5.91-16.85V1H118V32.21c0,2.32.16,6.23,2.8,8.95a11.28,11.28,0,0,0,14.85,0c2.64-2.72,2.8-6.63,2.8-8.95V1h12.29Z"/><path id="R" class="cls-1" d="M181.11,1c6.79,0,11,2.24,13.57,4.63,2.24,2.16,4.63,6,4.63,11.9a14.54,14.54,0,0,1-4.15,10.86,16.7,16.7,0,0,1-7.42,4.07l16.37,21.8h-15l-14.37-21v21h-12.3V1Zm-6.39,24.2h2.79c2.24,0,5.28-.24,7.35-2.32a7.16,7.16,0,0,0,2-5.19,6.47,6.47,0,0,0-2.48-5.43c-2-1.52-5.19-1.68-6.79-1.68h-2.87Z"/><path id="N" class="cls-1" d="M210.89,54.25V1h10.7L250.5,35.33V1h12.3V54.25H252.1L223.19,19.76V54.25Z"/><path id="E" class="cls-1" d="M304.56,11.37H286.75v10.3h16.93V32.05H286.75V43.87h17.81V54.25h-30.1V1h30.1Z"/><path id="Y" class="cls-1" d="M327.8,29.42,308.71,1h14.54L334,17.52,344.65,1h14.53L340.1,29.42V54.25H327.8Z"/><path id="T" class="cls-1" d="M26.59,107.2v42.88H14.29V107.2H2.72V96.82H38.17V107.2Z"/><path id="T-2" data-name="T" class="cls-1" d="M145,107.2v42.88H132.72V107.2H121.14V96.82h35.45V107.2Z"/><path id="H" class="cls-1" d="M175.36,117.1H196.6V96.82h12.3v53.26H196.6v-22.6H175.36v22.6h-12.3V96.82h12.3Z"/><path id="E-2" data-name="E" class="cls-1" d="M250.66,107.2H232.85v10.3h16.93v10.38H232.85V139.7h17.81v10.38h-30.1V96.82h30.1Z"/><path id="E-3" data-name="E" class="cls-1" d="M38,203H20.2v10.3H37.13V223.7H20.2v11.82H38V245.9H7.9V192.64H38Z"/><path id="A" class="cls-1" d="M79.29,235.84H59.17L55.1,245.9H42.32L63.8,192.64H75.06l21,53.26H83.29Zm-3.35-9.42-6.55-17.89-6.63,17.89Z"/><path id="S" class="cls-1" d="M129.52,205.66c-4-3.6-7.42-3.84-8.94-3.84a6.65,6.65,0,0,0-5.19,1.84A4.77,4.77,0,0,0,114,207a3.74,3.74,0,0,0,1.2,3c1.28,1.2,3.11,1.68,6.71,3l4,1.52a21.59,21.59,0,0,1,7.27,4.07,13.31,13.31,0,0,1,3.91,9.91c0,5.51-1.92,10.3-4.71,13.17-4.71,5-11.58,5.43-15.1,5.43a22.56,22.56,0,0,1-10.54-2.24A33.75,33.75,0,0,1,98.94,239l6.39-8.79a31.48,31.48,0,0,0,5,4.07,12.33,12.33,0,0,0,6.7,1.92,8.48,8.48,0,0,0,5.59-1.84,5.48,5.48,0,0,0,1.92-4.31,4.7,4.7,0,0,0-1.84-3.83c-1.43-1.2-4.71-2.4-6.22-3l-4.4-1.51c-2.47-.88-5.35-2-7.42-4.23-2.8-3-3.2-6.71-3.2-9.27a16.4,16.4,0,0,1,4.63-12c3.76-3.83,8.23-4.87,13.18-4.87A25.76,25.76,0,0,1,135,196.71Z"/><polygon id="T-east" class="cls-1" points="187.62 197.8 170.58 187.97 170.58 192.64 140.78 192.64 140.78 203.02 152.36 203.02 152.36 245.9 164.66 245.9 164.66 203.02 170.58 203.02 170.58 207.64 187.62 197.8"/><circle id="japan-symbol" class="cls-2" cx="67.73" cy="28.4" r="28.4"/><g id="korea-symbol"><path id="korea-top" class="cls-2" d="M81.93,109.64a14.2,14.2,0,0,0-14.2,14.2,14.21,14.21,0,1,1-28.41,0,28.41,28.41,0,0,1,56.81,0A14.2,14.2,0,0,0,81.93,109.64Z"/><path id="korea-bottom" class="cls-3" d="M67.73,152.25a28.41,28.41,0,0,1-28.41-28.41,14.21,14.21,0,1,0,28.41,0,14.2,14.2,0,1,1,28.4,0A28.41,28.41,0,0,1,67.73,152.25Z"/></g></g></g></g></svg>