<?xml version="1.0" encoding="utf-8"?>
<!-- Generator: Adobe Illustrator 22.1.0, SVG Export Plug-In . SVG Version: 6.00 Build 0)  -->
<svg version="1.1" id="Layer_1" xmlns="http://www.w3.org/2000/svg" xmlns:xlink="http://www.w3.org/1999/xlink" x="0px" y="0px"
	 viewBox="0 0 180.7 59.3" style="enable-background:new 0 0 180.7 59.3;" xml:space="preserve">
<style type="text/css">
	.st0{enable-background:new    ;}
	.st1{fill:#0041FA;}
	.st2{fill:none;stroke:#0041FA;stroke-width:4;stroke-miterlimit:10;}
</style>
<title>scroll-down</title>
<g id="Layer_2_1_">
	<g id="me">
		<g id="scroll-down">
			<g class="st0">
				<path class="st1" d="M0.9,15l3.4-0.3c0.2,1.1,0.6,2,1.2,2.5s1.5,0.8,2.5,0.8c1.1,0,2-0.2,2.5-0.7s0.8-1,0.8-1.7
					c0-0.4-0.1-0.8-0.4-1s-0.7-0.5-1.2-0.7C9.4,13.7,8.4,13.4,7,13c-1.9-0.5-3.2-1-3.9-1.7C2,10.4,1.5,9.2,1.5,7.9
					c0-0.9,0.2-1.7,0.7-2.5s1.2-1.3,2.1-1.7s2.1-0.6,3.4-0.6c2.2,0,3.8,0.5,4.9,1.4s1.7,2.2,1.7,3.8l-3.5,0.2
					c-0.1-0.9-0.5-1.5-1-1.9S8.7,6,7.7,6c-1,0-1.8,0.2-2.4,0.6C5,6.9,4.8,7.2,4.8,7.7c0,0.4,0.2,0.8,0.5,1c0.4,0.4,1.5,0.8,3.2,1.1
					s2.9,0.8,3.7,1.2s1.4,1,1.9,1.7s0.7,1.7,0.7,2.7c0,1-0.3,1.9-0.8,2.8s-1.3,1.5-2.3,1.9S9.4,20.9,8,20.9c-2.2,0-3.8-0.5-5-1.5
					S1.1,16.9,0.9,15z"/>
				<path class="st1" d="M28.7,14.3l3.4,1.1c-0.5,1.9-1.4,3.3-2.6,4.2s-2.7,1.4-4.6,1.4c-2.3,0-4.2-0.8-5.6-2.3s-2.2-3.7-2.2-6.4
					c0-2.9,0.7-5.1,2.2-6.7s3.4-2.4,5.8-2.4c2.1,0,3.8,0.6,5.1,1.9c0.8,0.7,1.4,1.8,1.8,3.2l-3.4,0.8c-0.2-0.9-0.6-1.6-1.3-2.1
					S25.9,6.1,25,6.1c-1.3,0-2.3,0.5-3.1,1.4s-1.2,2.4-1.2,4.4c0,2.2,0.4,3.7,1.2,4.6s1.8,1.4,3,1.4c0.9,0,1.7-0.3,2.4-0.9
					S28.5,15.5,28.7,14.3z"/>
				<path class="st1" d="M35.1,20.6V3.4h7.3c1.8,0,3.2,0.2,4,0.5s1.5,0.9,2,1.6s0.8,1.7,0.8,2.7c0,1.3-0.4,2.4-1.1,3.2
					s-1.9,1.4-3.4,1.6c0.8,0.4,1.4,0.9,1.9,1.4s1.1,1.5,2,2.8l2.1,3.4h-4.1l-2.5-3.7c-0.9-1.3-1.5-2.2-1.8-2.5s-0.7-0.6-1-0.7
					s-0.9-0.2-1.7-0.2h-0.7v7.2H35.1z M38.6,10.7h2.6c1.7,0,2.7-0.1,3.1-0.2s0.7-0.4,1-0.7s0.4-0.8,0.4-1.3c0-0.6-0.2-1-0.5-1.4
					s-0.7-0.6-1.3-0.7c-0.3,0-1.1-0.1-2.5-0.1h-2.7V10.7z"/>
				<path class="st1" d="M51.7,12.1c0-1.8,0.3-3.2,0.8-4.4c0.4-0.9,0.9-1.7,1.6-2.4s1.4-1.2,2.2-1.5c1.1-0.5,2.3-0.7,3.7-0.7
					c2.5,0,4.6,0.8,6.1,2.4s2.3,3.8,2.3,6.6c0,2.8-0.8,4.9-2.3,6.5s-3.5,2.3-6,2.3c-2.6,0-4.6-0.8-6.1-2.3S51.7,14.8,51.7,12.1z
					 M55.3,12c0,1.9,0.4,3.4,1.3,4.4s2,1.5,3.4,1.5s2.5-0.5,3.4-1.5s1.3-2.5,1.3-4.5c0-2-0.4-3.4-1.3-4.4s-2-1.5-3.4-1.5
					s-2.6,0.5-3.5,1.5S55.3,10,55.3,12z"/>
				<path class="st1" d="M71.2,20.6v-17h3.5v14.1h8.6v2.9H71.2z"/>
				<path class="st1" d="M85.8,20.6v-17h3.5v14.1h8.6v2.9H85.8z"/>
				<path class="st1" d="M106.6,3.4h6.3c1.4,0,2.5,0.1,3.3,0.3c1,0.3,1.9,0.8,2.6,1.6s1.3,1.7,1.6,2.8s0.6,2.5,0.6,4.1
					c0,1.4-0.2,2.6-0.5,3.7c-0.4,1.2-1,2.3-1.8,3c-0.6,0.6-1.4,1-2.4,1.4c-0.8,0.2-1.8,0.4-3.1,0.4h-6.5V3.4z M110.1,6.3v11.4h2.6
					c1,0,1.7-0.1,2.1-0.2c0.6-0.1,1-0.4,1.4-0.7s0.7-0.9,0.9-1.7s0.4-1.8,0.4-3.1s-0.1-2.3-0.4-3.1s-0.6-1.3-1-1.7s-1-0.7-1.6-0.8
					c-0.5-0.1-1.4-0.2-2.8-0.2H110.1z"/>
				<path class="st1" d="M123.3,12.1c0-1.8,0.3-3.2,0.8-4.4c0.4-0.9,0.9-1.7,1.6-2.4s1.4-1.2,2.2-1.5c1.1-0.5,2.3-0.7,3.7-0.7
					c2.5,0,4.6,0.8,6.1,2.4s2.3,3.8,2.3,6.6c0,2.8-0.8,4.9-2.3,6.5s-3.5,2.3-6,2.3c-2.6,0-4.6-0.8-6.1-2.3S123.3,14.8,123.3,12.1z
					 M126.8,12c0,1.9,0.4,3.4,1.3,4.4s2,1.5,3.4,1.5s2.5-0.5,3.4-1.5s1.3-2.5,1.3-4.5c0-2-0.4-3.4-1.3-4.4s-2-1.5-3.4-1.5
					s-2.6,0.5-3.5,1.5S126.8,10,126.8,12z"/>
				<path class="st1" d="M145.1,20.6L141,3.4h3.6l2.6,11.8l3.1-11.8h4.1l3,12l2.6-12h3.5l-4.2,17.2h-3.7l-3.4-12.8l-3.4,12.8H145.1z
					"/>
				<path class="st1" d="M165.3,20.6V3.4h3.4l7,11.5V3.4h3.2v17.2h-3.5l-6.9-11.2v11.2H165.3z"/>
			</g>
			<polyline class="st2" points="106.1,40.8 90.3,56.5 74.6,40.8 			"/>
		</g>
	</g>
</g>
</svg>
